<svg width="691" height="140" viewBox="0 0 691 140" fill="none" xmlns="http://www.w3.org/2000/svg">
<path d="M52.0663 0.0264893C54.3611 0.401875 56.6843 0.678102 58.9578 1.18098C75.751 4.9065 89.0666 19.1074 91.9705 36.0847C93.5145 45.1294 91.9492 53.7137 88.6558 62.0996C84.8665 71.7534 79.4694 80.4935 73.3995 88.8441C66.6355 98.1437 59.1207 106.792 50.9685 114.894C49.4811 116.375 48.7728 116.375 47.2855 114.894C35.8539 103.463 25.5273 91.1389 17.1625 77.2567C12.5163 69.5436 8.67742 61.4693 6.68009 52.6088C2.59335 34.5407 11.0856 15.2119 27.1492 6.00432C32.8296 2.75334 38.8853 0.748929 45.4156 0.210641C45.6706 0.189392 45.9185 0.0902339 46.1735 0.0264893C48.1354 0.0264893 50.0973 0.0264893 52.0592 0.0264893H52.0663ZM69.0507 43.5004C69.0082 32.4655 60.0627 23.5412 49.0916 23.5837C38.0141 23.6262 29.1678 32.5646 29.2032 43.6845C29.2386 54.6203 38.2833 63.4949 49.3324 63.4383C60.1831 63.3816 69.1003 54.3653 69.0578 43.5074L69.0507 43.5004Z" fill="#FFF9E8"/>
<path d="M69.0508 43.5003C69.0933 54.3653 60.1761 63.3745 49.3253 63.4312C38.2763 63.4949 29.2316 54.6131 29.1962 43.6774C29.1608 32.5646 38.0071 23.6261 49.0845 23.5766C60.0628 23.5341 69.0083 32.4583 69.0437 43.4932L69.0508 43.5003Z" fill="white"/>
<path d="M112.673 95.8207C104.727 87.5976 96.7797 79.3675 88.7903 71.1798C87.9971 70.3653 86.9843 69.7279 85.9856 69.1471C85.2136 68.7009 84.3849 68.7717 83.5208 69.2392C83.2233 69.4091 82.8338 69.4941 82.4442 69.5154C82.168 69.5366 81.8847 69.5154 81.6368 69.4658C80.2911 69.1825 79.3278 68.2334 78.5558 67.4401C80.0786 64.5929 81.743 61.9581 82.9471 59.125C86.1981 51.4544 86.7009 43.5146 84.562 35.4545C82.5646 27.9114 78.485 21.6573 72.5142 16.664C71.473 15.7928 70.3894 14.9783 69.2703 14.2346C66.076 12.0885 62.5913 10.4949 58.7878 9.55289C56.9605 9.10668 55.0907 8.81629 53.2279 8.51881C52.4984 8.40549 51.7688 8.29216 51.0464 8.16467H46.8393C46.5205 8.22133 46.1947 8.27091 45.8689 8.33466C45.6777 8.37007 45.4794 8.41257 45.2881 8.4409C42.8375 8.90128 40.3373 9.22 37.9646 9.92828C36.2576 10.4382 34.6215 11.0615 33.0562 11.8052C28.4383 13.9796 24.4365 17.1314 21.0156 21.1119C16.7801 26.0486 14.0462 31.729 12.8421 38.1105C11.553 44.9454 12.1338 51.6456 14.6199 58.1618C16.9997 64.3733 20.7889 69.572 25.9735 73.7225C30.3223 77.2072 35.1386 79.58 40.4152 80.8124C42.1576 81.2232 43.9495 81.5065 45.791 81.6623C50.2815 82.0589 54.6515 81.7048 58.8658 80.5007C60.5727 80.0191 62.2584 79.3958 63.9087 78.6238C66.7276 77.3135 69.3624 75.5995 72.3088 73.9421C72.7904 74.8345 73.4704 75.8969 73.9024 77.0443C73.9732 77.2214 73.9945 77.441 73.9662 77.6676C73.952 78.0713 73.8103 78.5034 73.6262 78.815C73.1517 79.6154 73.0312 80.4228 73.4066 81.1877C73.8812 82.1581 74.4195 83.1638 75.1561 83.9358C83.195 92.3076 91.2693 100.644 99.3436 108.973C101.468 111.162 104.124 111.176 106.327 109.065C108.424 107.061 110.506 105.049 112.581 103.017C114.897 100.757 114.94 98.1651 112.673 95.8207Z" fill="#717171" stroke="white" stroke-width="4.24964" stroke-miterlimit="10"/>
<path d="M49.0066 64.4726C59.177 64.4726 67.4218 56.2279 67.4218 46.0575C67.4218 35.8871 59.177 27.6423 49.0066 27.6423C38.8363 27.6423 30.5915 35.8871 30.5915 46.0575C30.5915 56.2279 38.8363 64.4726 49.0066 64.4726Z" fill="white" stroke="white" stroke-width="0.177069" stroke-miterlimit="10"/>
<path d="M98.2671 43.4579V53.0834H93.9041C91.7297 53.0834 89.5411 53.0975 87.3667 53.0975C84.8028 53.0975 82.2247 53.0834 79.6607 53.0621C78.5629 53.048 77.8829 53.4092 77.2384 54.2804C72.3867 60.8815 67.4855 67.433 62.5842 74.0058C62.2655 74.4378 61.9326 74.8628 61.4722 75.4507C56.8543 68.4671 52.2788 61.5543 47.6963 54.6274C44.0345 49.0887 40.3727 43.55 36.6756 37.9688C35.8752 39.0029 35.1882 39.8882 34.5224 40.7877C33.4458 42.2397 32.3692 43.6846 31.2927 45.1365C29.5928 47.4313 27.8859 49.7191 26.1435 51.9856C25.7469 52.5097 24.9678 53.0409 24.3587 53.0409C19.677 53.0834 14.9811 53.0834 10.2923 53.0834C8.6279 53.0834 6.97054 53.0834 5.30609 53.0692H1.09186C0.893546 53.0692 0.681064 53.0055 0.348175 52.9559V43.4225C0.978539 43.3871 1.61599 43.3234 2.23218 43.3234H2.28885C4.54116 43.3234 6.79347 43.3092 9.05995 43.3021C10.6819 43.3021 12.3109 43.3021 13.947 43.3163C15.5761 43.3304 17.198 43.3375 18.8341 43.3588C20.0807 43.3729 20.7961 42.9338 21.5114 41.9706C23.4662 39.3145 25.4211 36.6868 27.383 34.045C30.3365 30.0715 33.2971 26.0981 36.2648 22.1247C36.5197 21.7777 36.7889 21.4448 37.1643 20.9561C44.2116 31.6227 51.2377 42.2255 58.3346 52.9417C59.5457 54.7761 60.7569 56.6177 61.9751 58.4592C62.8534 57.2905 63.6254 56.2706 64.3974 55.2436C67.0818 51.6385 69.7449 48.005 72.4859 44.4353C72.8825 43.9254 73.6546 43.38 74.2637 43.3729C79.0587 43.3304 83.8537 43.3304 88.6487 43.3304C91.4039 43.3304 94.1662 43.3446 96.9284 43.3446H97.5305C97.743 43.3446 97.9554 43.4084 98.2883 43.465L98.2671 43.4579Z" fill="#14DF96"/>
<path d="M186.123 79.8904C183.754 82.2591 180.892 84.1344 177.635 85.4174C174.279 86.7992 171.022 87.3914 167.765 87.3914C159.376 87.3914 153.059 85.0227 148.815 80.0878C144.473 75.153 142.301 69.2311 142.301 62.2237C142.203 55.3149 144.374 49.2944 148.815 44.1621C153.158 39.1286 159.475 36.5625 167.765 36.5625C174.871 36.5625 180.793 38.9312 185.629 43.6686L193.032 36.5625C186.024 29.6537 177.635 26.1006 167.765 26.1006C161.843 26.1006 156.415 27.1862 151.678 29.1602C146.94 31.2328 143.091 33.9963 140.229 37.4507C137.268 40.9051 135.097 44.7543 133.616 48.9983C132.037 53.2422 131.346 57.6836 131.346 62.3224C131.346 67.0598 132.037 71.4025 133.517 75.5477C134.998 79.693 137.169 83.4435 140.13 86.7992C142.992 90.1549 146.842 92.8197 151.579 94.7937C156.316 96.7676 161.646 97.7546 167.765 97.7546C178.128 97.7546 186.814 94.3989 193.723 87.4901L186.123 79.8904ZM240.745 55.4136C239.166 52.7487 236.896 50.5774 233.935 48.9983C230.875 47.4191 227.618 46.6295 224.164 46.6295C216.86 46.6295 210.84 48.8996 206.102 53.4396C201.365 57.9797 198.996 64.0989 198.996 71.9947C198.996 80.0878 201.266 86.4044 206.003 90.9445C210.642 95.4845 216.663 97.7546 223.966 97.6559C227.223 97.6559 230.48 96.8663 233.639 95.2871C236.797 93.708 239.166 91.438 240.745 88.477L241.238 96.3728H250.911V47.7152H241.041L240.745 55.4136ZM224.953 55.9071C227.815 55.9071 230.382 56.4992 232.652 57.6836C234.922 58.868 236.599 60.4471 237.784 62.3224C238.968 64.2963 239.758 66.3689 240.35 68.639C240.942 71.0077 240.942 73.2777 240.35 75.5477C239.758 77.8178 238.968 79.8904 237.784 81.7657C236.599 83.7396 234.922 85.22 232.652 86.4044C230.382 87.5888 227.815 88.181 224.953 88.181C220.413 88.181 216.663 86.7005 213.702 83.7396C210.642 80.7787 209.162 76.9295 209.162 71.9947C209.162 67.1585 210.642 63.3093 213.702 60.3484C216.663 57.3875 220.413 55.9071 224.953 55.9071ZM264.703 47.7152V96.3728H274.868V70.0207C274.868 65.7767 276.053 62.5197 278.619 60.151C281.086 57.881 284.245 56.6966 287.995 56.6966C291.252 56.6966 294.114 57.6836 296.582 59.6575L301.22 50.7748C298.062 48.0113 294.114 46.6295 289.179 46.6295C282.468 46.6295 277.632 49.1957 274.868 54.1305L274.178 47.7152H264.703ZM353.901 75.8438C354.789 66.2702 353.012 58.9667 348.472 53.9331C343.932 48.9983 337.517 46.4321 329.424 46.4321C321.824 46.4321 315.705 48.8009 310.968 53.5383C306.23 58.2758 303.861 64.395 303.861 71.7973C303.861 79.693 306.23 85.9109 310.968 90.5497C315.705 95.2871 322.12 97.5572 330.115 97.5572C334.063 97.5572 337.912 96.8663 341.662 95.3858C345.413 94.0041 348.571 91.9314 351.039 89.2666L344.426 82.8513C342.945 84.4305 340.873 85.7135 338.208 86.7005C335.543 87.6875 332.878 88.0823 330.312 88.0823C325.871 88.0823 322.219 86.9966 319.357 84.7266C316.495 82.5552 314.817 79.5943 314.422 75.8438H353.901ZM314.619 67.2572C315.409 63.5067 317.087 60.6445 319.85 58.5719C322.614 56.5979 325.871 55.5123 329.72 55.5123C333.865 55.5123 337.221 56.5979 339.787 58.5719C342.353 60.6445 343.834 63.5067 344.13 67.2572H314.619ZM376.327 96.3728V69.4285H412.252V59.1641H376.327V38.1416H414.127V27.3836H365.273V96.3728H376.327ZM434.962 47.5178V96.3728H424.796V47.5178H434.962ZM423.612 33.4042C423.612 36.069 424.599 37.9442 426.77 39.0299C428.843 40.1155 430.915 40.1155 433.087 39.0299C435.159 37.9442 436.245 36.069 436.245 33.4042C436.245 30.838 435.159 28.9628 433.087 27.8771C430.915 26.8901 428.843 26.8901 426.77 27.8771C424.599 28.9628 423.612 30.838 423.612 33.4042ZM495.973 96.3728V70.2181C495.973 63.0132 493.999 57.2888 490.051 53.1435C486.103 48.9983 481.168 46.9256 475.049 46.9256C468.732 46.9256 463.205 49.5904 458.665 54.7227L458.073 47.6165H448.796V96.3728H458.961V70.909C458.961 66.8624 460.244 63.408 462.811 60.5458C465.377 57.7823 468.634 56.3018 472.582 56.3018C476.727 56.3018 479.885 57.5849 482.254 60.151C484.524 62.7171 485.708 66.0728 485.708 70.3168V96.3728H495.973ZM531.637 56.2031C535.98 56.2031 539.631 57.6836 542.592 60.6445C545.553 63.6054 547.132 67.4546 547.132 71.9947C547.132 76.7321 545.553 80.4826 542.592 83.4435C539.631 86.4044 535.98 87.8849 531.637 87.8849C527.196 87.8849 523.544 86.5031 520.583 83.5422C517.622 80.68 516.24 76.8308 516.24 71.9947C516.24 67.1585 517.622 63.3093 520.583 60.4471C523.544 57.6836 527.196 56.2031 531.637 56.2031ZM547.823 27.3836V55.3149C546.244 52.6501 543.875 50.5774 540.52 48.9983C537.164 47.4191 533.907 46.6295 530.749 46.6295C523.445 46.6295 517.425 48.8996 512.885 53.3409C508.345 57.7823 506.074 64.0002 506.074 71.9947C506.074 79.8904 508.345 86.0096 513.082 90.5497C517.721 95.0897 523.643 97.3598 530.946 97.3598C538.644 97.3598 544.27 94.4976 547.823 88.6744L548.415 96.3728H557.989V27.3836H547.823ZM618.86 75.8438C619.748 66.2702 617.971 58.9667 613.431 53.9331C608.891 48.9983 602.476 46.4321 594.383 46.4321C586.783 46.4321 580.664 48.8009 575.926 53.5383C571.189 58.2758 568.82 64.395 568.82 71.7973C568.82 79.693 571.189 85.9109 575.926 90.5497C580.664 95.2871 587.079 97.5572 595.074 97.5572C599.022 97.5572 602.871 96.8663 606.621 95.3858C610.372 94.0041 613.53 91.9314 615.997 89.2666L609.385 82.8513C607.904 84.4305 605.832 85.7135 603.167 86.7005C600.502 87.6875 597.837 88.0823 595.271 88.0823C590.83 88.0823 587.178 86.9966 584.316 84.7266C581.454 82.5552 579.776 79.5943 579.381 75.8438H618.86ZM579.578 67.2572C580.368 63.5067 582.046 60.6445 584.809 58.5719C587.573 56.5979 590.83 55.5123 594.679 55.5123C598.824 55.5123 602.18 56.5979 604.746 58.5719C607.312 60.6445 608.793 63.5067 609.089 67.2572H579.578ZM629.226 47.7152V96.3728H639.392V70.0207C639.392 65.7767 640.576 62.5197 643.142 60.151C645.61 57.881 648.768 56.6966 652.518 56.6966C655.775 56.6966 658.638 57.6836 661.105 59.6575L665.744 50.7748C662.585 48.0113 658.638 46.6295 653.703 46.6295C646.991 46.6295 642.155 49.1957 639.392 54.1305L638.701 47.7152H629.226Z" fill="black"/>
<path d="M677.96 21.1369C674.643 21.1369 672.038 22.1732 670.143 24.2458C668.218 26.3185 667.271 28.8945 667.271 31.9442C667.271 35.0235 668.218 37.5699 670.143 39.6426C672.038 41.7152 674.643 42.7515 677.96 42.7515C681.276 42.7515 683.881 41.7152 685.806 39.6426C687.701 37.5699 688.678 35.0235 688.678 31.9442C688.678 28.8945 687.701 26.3185 685.806 24.2458C683.881 22.1732 681.276 21.1369 677.96 21.1369ZM669.995 31.9442C669.995 29.5162 670.735 27.5324 672.156 25.9335C673.577 24.3643 675.502 23.5648 677.96 23.5648C680.417 23.5648 682.371 24.3643 683.793 25.9335C685.214 27.5324 685.924 29.5162 685.924 31.9442C685.924 34.3721 685.214 36.3856 683.793 37.9548C682.371 39.5241 680.417 40.294 677.96 40.294C675.472 40.294 673.548 39.5241 672.127 37.9548C670.705 36.3856 669.995 34.3721 669.995 31.9442ZM683.2 36.8593V37.3923H680.506L677.663 33.78H676.272V37.3923H673.785V26.4073H678.937C679.825 26.4073 680.624 26.6442 681.305 27.0587C681.957 27.4732 682.43 28.0062 682.667 28.628C682.904 29.2794 682.993 29.9308 682.963 30.5822C682.904 31.2336 682.667 31.8258 682.194 32.3587C681.72 32.8917 681.068 33.2174 680.299 33.3654L683.2 36.8593ZM676.272 28.6576V31.6481H678.907C679.558 31.6481 680.003 31.4112 680.269 30.9079C680.536 30.4045 680.536 29.9012 680.299 29.3978C680.032 28.9241 679.588 28.6576 678.937 28.6576H676.272Z" fill="black"/>
</svg>
