<svg width="691" height="140" viewBox="0 0 691 140" fill="none" xmlns="http://www.w3.org/2000/svg">
<path d="M52.0663 0C54.3611 0.375385 56.6843 0.651612 58.9578 1.15449C75.751 4.88001 89.0666 19.0809 91.9705 36.0582C93.5145 45.1029 91.9492 53.6872 88.6558 62.0732C84.8665 71.7269 79.4694 80.467 73.3995 88.8176C66.6355 98.1172 59.1207 106.765 50.9685 114.868C49.4811 116.348 48.7728 116.348 47.2855 114.868C35.8539 103.436 25.5273 91.1124 17.1625 77.2302C12.5163 69.5171 8.67742 61.4428 6.68009 52.5823C2.59335 34.5142 11.0856 15.1854 27.1492 5.97783C32.8296 2.72686 38.8853 0.72244 45.4156 0.184151C45.6706 0.162903 45.9185 0.0637447 46.1735 0C48.1354 0 50.0973 0 52.0592 0H52.0663ZM69.0507 43.4739C69.0082 32.439 60.0627 23.5147 49.0916 23.5572C38.0141 23.5997 29.1678 32.5381 29.2032 43.658C29.2386 54.5938 38.2833 63.4685 49.3324 63.4118C60.1831 63.3551 69.1003 54.3388 69.0578 43.481L69.0507 43.4739Z" fill="#FFF9E8"/>
<path d="M69.0508 43.4738C69.0933 54.3388 60.1761 63.348 49.3253 63.4047C38.2763 63.4684 29.2316 54.5867 29.1962 43.6509C29.1608 32.5381 38.0071 23.5997 49.0845 23.5501C60.0628 23.5076 69.0083 32.4318 69.0437 43.4668L69.0508 43.4738Z" fill="white"/>
<path d="M112.673 95.7942C104.727 87.5711 96.7797 79.341 88.7903 71.1533C87.9971 70.3388 86.9843 69.7014 85.9856 69.1206C85.2136 68.6744 84.3849 68.7452 83.5208 69.2127C83.2233 69.3827 82.8338 69.4676 82.4442 69.4889C82.168 69.5101 81.8847 69.4889 81.6368 69.4393C80.2911 69.156 79.3278 68.2069 78.5558 67.4137C80.0786 64.5664 81.743 61.9316 82.9471 59.0985C86.1981 51.4279 86.7009 43.4881 84.562 35.428C82.5646 27.8849 78.485 21.6308 72.5142 16.6375C71.473 15.7663 70.3894 14.9518 69.2703 14.2081C66.076 12.062 62.5913 10.4684 58.7878 9.5264C56.9605 9.08019 55.0907 8.7898 53.2279 8.49232C52.4984 8.379 51.7688 8.26567 51.0464 8.13818H46.8393C46.5205 8.19485 46.1947 8.24442 45.8689 8.30817C45.6777 8.34358 45.4794 8.38608 45.2881 8.41441C42.8375 8.87479 40.3373 9.19351 37.9646 9.90179C36.2576 10.4117 34.6215 11.035 33.0562 11.7787C28.4383 13.9531 24.4365 17.1049 21.0156 21.0854C16.7801 26.0221 14.0462 31.7025 12.8421 38.084C11.553 44.9189 12.1338 51.6191 14.6199 58.1353C16.9997 64.3468 20.7889 69.5456 25.9735 73.696C30.3223 77.1808 35.1386 79.5535 40.4152 80.7859C42.1576 81.1967 43.9495 81.48 45.791 81.6358C50.2815 82.0324 54.6515 81.6783 58.8658 80.4742C60.5727 79.9926 62.2584 79.3693 63.9087 78.5973C66.7276 77.287 69.3624 75.573 72.3088 73.9156C72.7904 74.808 73.4704 75.8704 73.9024 77.0178C73.9732 77.1949 73.9945 77.4145 73.9662 77.6411C73.952 78.0448 73.8103 78.4769 73.6262 78.7885C73.1517 79.5889 73.0312 80.3963 73.4066 81.1613C73.8812 82.1316 74.4195 83.1373 75.1561 83.9094C83.195 92.2812 91.2693 100.618 99.3436 108.947C101.468 111.135 104.124 111.15 106.327 109.039C108.424 107.035 110.506 105.023 112.581 102.99C114.897 100.731 114.94 98.1386 112.673 95.7942Z" fill="#717171" stroke="white" stroke-width="4.24964" stroke-miterlimit="10"/>
<path d="M49.0066 64.4461C59.177 64.4461 67.4218 56.2014 67.4218 46.031C67.4218 35.8606 59.177 27.6158 49.0066 27.6158C38.8363 27.6158 30.5915 35.8606 30.5915 46.031C30.5915 56.2014 38.8363 64.4461 49.0066 64.4461Z" fill="white" stroke="white" stroke-width="0.177069" stroke-miterlimit="10"/>
<path d="M98.2671 43.4314V53.0569H93.9041C91.7297 53.0569 89.5411 53.0711 87.3667 53.0711C84.8028 53.0711 82.2247 53.0569 79.6607 53.0356C78.5629 53.0215 77.8829 53.3827 77.2384 54.2539C72.3867 60.855 67.4855 67.4065 62.5842 73.9793C62.2655 74.4113 61.9326 74.8363 61.4722 75.4242C56.8543 68.4406 52.2788 61.5278 47.6963 54.6009C44.0345 49.0622 40.3727 43.5235 36.6756 37.9423C35.8752 38.9764 35.1882 39.8617 34.5224 40.7612C33.4458 42.2132 32.3692 43.6581 31.2927 45.11C29.5928 47.4049 27.8859 49.6926 26.1435 51.9591C25.7469 52.4832 24.9678 53.0144 24.3587 53.0144C19.677 53.0569 14.9811 53.0569 10.2923 53.0569C8.6279 53.0569 6.97054 53.0569 5.30609 53.0427H1.09186C0.893546 53.0427 0.681064 52.979 0.348175 52.9294V43.396C0.978539 43.3606 1.61599 43.2969 2.23218 43.2969H2.28885C4.54116 43.2969 6.79347 43.2827 9.05995 43.2756C10.6819 43.2756 12.3109 43.2756 13.947 43.2898C15.5761 43.3039 17.198 43.311 18.8341 43.3323C20.0807 43.3464 20.7961 42.9073 21.5114 41.9441C23.4662 39.288 25.4211 36.6603 27.383 34.0185C30.3365 30.0451 33.2971 26.0716 36.2648 22.0982C36.5197 21.7512 36.7889 21.4183 37.1643 20.9296C44.2116 31.5962 51.2377 42.199 58.3346 52.9152C59.5457 54.7497 60.7569 56.5912 61.9751 58.4327C62.8534 57.264 63.6254 56.2441 64.3974 55.2171C67.0818 51.612 69.7449 47.9786 72.4859 44.4089C72.8825 43.8989 73.6546 43.3535 74.2637 43.3464C79.0587 43.3039 83.8537 43.3039 88.6487 43.3039C91.4039 43.3039 94.1662 43.3181 96.9284 43.3181H97.5305C97.743 43.3181 97.9554 43.3819 98.2883 43.4385L98.2671 43.4314Z" fill="#14DF96"/>
<path d="M186.123 79.8639C183.754 82.2326 180.892 84.1079 177.635 85.391C174.279 86.7727 171.022 87.3649 167.765 87.3649C159.376 87.3649 153.059 84.9962 148.815 80.0613C144.473 75.1265 142.301 69.2047 142.301 62.1972C142.203 55.2884 144.374 49.2679 148.815 44.1356C153.158 39.1021 159.475 36.536 167.765 36.536C174.871 36.536 180.793 38.9047 185.629 43.6421L193.032 36.536C186.024 29.6272 177.635 26.0741 167.765 26.0741C161.843 26.0741 156.415 27.1598 151.678 29.1337C146.94 31.2063 143.091 33.9698 140.229 37.4242C137.268 40.8786 135.097 44.7278 133.616 48.9718C132.037 53.2157 131.346 57.6571 131.346 62.2959C131.346 67.0333 132.037 71.376 133.517 75.5213C134.998 79.6665 137.169 83.417 140.13 86.7727C142.992 90.1284 146.842 92.7932 151.579 94.7672C156.316 96.7411 161.646 97.7281 167.765 97.7281C178.128 97.7281 186.814 94.3724 193.723 87.4636L186.123 79.8639ZM240.745 55.3871C239.166 52.7223 236.896 50.5509 233.935 48.9718C230.875 47.3926 227.618 46.6031 224.164 46.6031C216.86 46.6031 210.84 48.8731 206.102 53.4131C201.365 57.9532 198.996 64.0724 198.996 71.9682C198.996 80.0613 201.266 86.3779 206.003 90.918C210.642 95.458 216.663 97.7281 223.966 97.6294C227.223 97.6294 230.48 96.8398 233.639 95.2606C236.797 93.6815 239.166 91.4115 240.745 88.4506L241.238 96.3463H250.911V47.6887H241.041L240.745 55.3871ZM224.953 55.8806C227.815 55.8806 230.382 56.4727 232.652 57.6571C234.922 58.8415 236.599 60.4206 237.784 62.2959C238.968 64.2698 239.758 66.3424 240.35 68.6125C240.942 70.9812 240.942 73.2512 240.35 75.5213C239.758 77.7913 238.968 79.8639 237.784 81.7392C236.599 83.7131 234.922 85.1936 232.652 86.3779C230.382 87.5623 227.815 88.1545 224.953 88.1545C220.413 88.1545 216.663 86.674 213.702 83.7131C210.642 80.7522 209.162 76.903 209.162 71.9682C209.162 67.132 210.642 63.2828 213.702 60.3219C216.663 57.361 220.413 55.8806 224.953 55.8806ZM264.703 47.6887V96.3463H274.868V69.9942C274.868 65.7503 276.053 62.4933 278.619 60.1245C281.086 57.8545 284.245 56.6701 287.995 56.6701C291.252 56.6701 294.114 57.6571 296.582 59.631L301.22 50.7483C298.062 47.9848 294.114 46.6031 289.179 46.6031C282.468 46.6031 277.632 49.1692 274.868 54.104L274.178 47.6887H264.703ZM353.901 75.8173C354.789 66.2437 353.012 58.9402 348.472 53.9066C343.932 48.9718 337.517 46.4057 329.424 46.4057C321.824 46.4057 315.705 48.7744 310.968 53.5118C306.23 58.2493 303.861 64.3685 303.861 71.7708C303.861 79.6665 306.23 85.8844 310.968 90.5232C315.705 95.2606 322.12 97.5307 330.115 97.5307C334.063 97.5307 337.912 96.8398 341.662 95.3593C345.413 93.9776 348.571 91.905 351.039 89.2401L344.426 82.8248C342.945 84.404 340.873 85.687 338.208 86.674C335.543 87.661 332.878 88.0558 330.312 88.0558C325.871 88.0558 322.219 86.9701 319.357 84.7001C316.495 82.5287 314.817 79.5678 314.422 75.8173H353.901ZM314.619 67.2307C315.409 63.4802 317.087 60.618 319.85 58.5454C322.614 56.5714 325.871 55.4858 329.72 55.4858C333.865 55.4858 337.221 56.5714 339.787 58.5454C342.353 60.618 343.834 63.4802 344.13 67.2307H314.619ZM376.327 96.3463V69.402H412.252V59.1376H376.327V38.1151H414.127V27.3571H365.273V96.3463H376.327ZM434.962 47.4913V96.3463H424.796V47.4913H434.962ZM423.612 33.3777C423.612 36.0425 424.599 37.9177 426.77 39.0034C428.843 40.089 430.915 40.089 433.087 39.0034C435.159 37.9177 436.245 36.0425 436.245 33.3777C436.245 30.8115 435.159 28.9363 433.087 27.8506C430.915 26.8637 428.843 26.8637 426.77 27.8506C424.599 28.9363 423.612 30.8115 423.612 33.3777ZM495.973 96.3463V70.1916C495.973 62.9867 493.999 57.2623 490.051 53.117C486.103 48.9718 481.168 46.8991 475.049 46.8991C468.732 46.8991 463.205 49.564 458.665 54.6962L458.073 47.59H448.796V96.3463H458.961V70.8825C458.961 66.8359 460.244 63.3815 462.811 60.5193C465.377 57.7558 468.634 56.2754 472.582 56.2754C476.727 56.2754 479.885 57.5584 482.254 60.1245C484.524 62.6907 485.708 66.0464 485.708 70.2903V96.3463H495.973ZM531.637 56.1767C535.98 56.1767 539.631 57.6571 542.592 60.618C545.553 63.5789 547.132 67.4281 547.132 71.9682C547.132 76.7056 545.553 80.4561 542.592 83.417C539.631 86.3779 535.98 87.8584 531.637 87.8584C527.196 87.8584 523.544 86.4766 520.583 83.5157C517.622 80.6535 516.24 76.8043 516.24 71.9682C516.24 67.132 517.622 63.2828 520.583 60.4206C523.544 57.6571 527.196 56.1767 531.637 56.1767ZM547.823 27.3571V55.2884C546.244 52.6236 543.875 50.5509 540.52 48.9718C537.164 47.3926 533.907 46.6031 530.749 46.6031C523.445 46.6031 517.425 48.8731 512.885 53.3144C508.345 57.7558 506.074 63.9737 506.074 71.9682C506.074 79.8639 508.345 85.9831 513.082 90.5232C517.721 95.0633 523.643 97.3333 530.946 97.3333C538.644 97.3333 544.27 94.4711 547.823 88.648L548.415 96.3463H557.989V27.3571H547.823ZM618.86 75.8173C619.748 66.2437 617.971 58.9402 613.431 53.9066C608.891 48.9718 602.476 46.4057 594.383 46.4057C586.783 46.4057 580.664 48.7744 575.926 53.5118C571.189 58.2493 568.82 64.3685 568.82 71.7708C568.82 79.6665 571.189 85.8844 575.926 90.5232C580.664 95.2606 587.079 97.5307 595.074 97.5307C599.022 97.5307 602.871 96.8398 606.621 95.3593C610.372 93.9776 613.53 91.905 615.997 89.2401L609.385 82.8248C607.904 84.404 605.832 85.687 603.167 86.674C600.502 87.661 597.837 88.0558 595.271 88.0558C590.83 88.0558 587.178 86.9701 584.316 84.7001C581.454 82.5287 579.776 79.5678 579.381 75.8173H618.86ZM579.578 67.2307C580.368 63.4802 582.046 60.618 584.809 58.5454C587.573 56.5714 590.83 55.4858 594.679 55.4858C598.824 55.4858 602.18 56.5714 604.746 58.5454C607.312 60.618 608.793 63.4802 609.089 67.2307H579.578ZM629.226 47.6887V96.3463H639.392V69.9942C639.392 65.7503 640.576 62.4933 643.142 60.1245C645.61 57.8545 648.768 56.6701 652.518 56.6701C655.775 56.6701 658.638 57.6571 661.105 59.631L665.744 50.7483C662.585 47.9848 658.638 46.6031 653.703 46.6031C646.991 46.6031 642.155 49.1692 639.392 54.104L638.701 47.6887H629.226Z" fill="white"/>
<path d="M677.96 21.1105C674.643 21.1105 672.038 22.1468 670.143 24.2195C668.218 26.2921 667.271 28.8681 667.271 31.9178C667.271 34.9972 668.218 37.5436 670.143 39.6162C672.038 41.6888 674.643 42.7251 677.96 42.7251C681.276 42.7251 683.881 41.6888 685.806 39.6162C687.701 37.5436 688.678 34.9972 688.678 31.9178C688.678 28.8681 687.701 26.2921 685.806 24.2195C683.881 22.1468 681.276 21.1105 677.96 21.1105ZM669.995 31.9178C669.995 29.4899 670.735 27.5061 672.156 25.9072C673.577 24.3379 675.502 23.5385 677.96 23.5385C680.417 23.5385 682.371 24.3379 683.793 25.9072C685.214 27.5061 685.924 29.4899 685.924 31.9178C685.924 34.3458 685.214 36.3592 683.793 37.9285C682.371 39.4978 680.417 40.2676 677.96 40.2676C675.472 40.2676 673.548 39.4978 672.127 37.9285C670.705 36.3592 669.995 34.3458 669.995 31.9178ZM683.2 36.8329V37.3659H680.506L677.663 33.7536H676.272V37.3659H673.785V26.3809H678.937C679.825 26.3809 680.624 26.6178 681.305 27.0323C681.957 27.4469 682.43 27.9798 682.667 28.6016C682.904 29.253 682.993 29.9044 682.963 30.5558C682.904 31.2072 682.667 31.7994 682.194 32.3324C681.72 32.8653 681.068 33.191 680.299 33.3391L683.2 36.8329ZM676.272 28.6312V31.6217H678.907C679.558 31.6217 680.003 31.3849 680.269 30.8815C680.536 30.3782 680.536 29.8748 680.299 29.3714C680.032 28.8977 679.588 28.6312 678.937 28.6312H676.272Z" fill="white"/>
</svg>
