<?xml version="1.0" encoding="utf-8"?>
<!-- Generator: Adobe Illustrator 27.0.0, SVG Export Plug-In . SVG Version: 6.00 Build 0)  -->
<svg version="1.1" xmlns="http://www.w3.org/2000/svg" xmlns:xlink="http://www.w3.org/1999/xlink" x="0px" y="0px"
	 viewBox="0 0 200.17 200.17" style="enable-background:new 0 0 200.17 200.17;" xml:space="preserve">
<style type="text/css">
	.st0{fill:#FFFFFF;}
	.st1{clip-path:url(#SVGID_00000106149529137619194080000007525149487665709213_);}
	.st2{fill:#E5E5E5;}
	.st3{fill:#444444;}
	.st4{fill:#9C9C9C;}
	.st5{clip-path:url(#SVGID_00000003793423456687442040000012450551979903636669_);}
	.st6{clip-path:url(#SVGID_00000155132334872034610060000017456134809739312801_);}
	.st7{clip-path:url(#SVGID_00000175323683447434521990000012640489401297141688_);}
	.st8{fill:#3F3F69;}
	.st9{fill:#E5E5E6;}
	.st10{fill:#65AFCD;}
</style>
<g id="BACKGROUND">
</g>
<g id="OBJECTS">
	<g>
		<g>
			<g>
				<g>
					<path class="st4" d="M87.17,54.96c-12.51,0-22.65,10.14-22.65,22.65c0,12.51,14.12,30.53,38.79,39.23V61.59
						C99.21,57.49,93.42,54.96,87.17,54.96z"/>
				</g>
				<g>
					<path class="st3" d="M119.46,54.95c-6.25,0-12.05,2.54-16.15,6.63v55.24c24.67-8.7,38.79-26.72,38.79-39.23
						C142.11,65.1,131.97,54.95,119.46,54.95z"/>
				</g>
			</g>
			<g>
				<polygon class="st0" points="121.69,79.42 111.21,79.42 111.21,68.94 95.69,68.94 95.69,79.42 85.2,79.42 85.2,94.94 
					95.69,94.94 95.69,105.43 111.21,105.43 111.21,94.94 121.69,94.94 				"/>
			</g>
		</g>
		<g>
			<path class="st3" d="M143.91,63.84c0.75,0.46,1.29,1.02,1.58,1.71c2.51,6.03-14.47,18.83-37.93,28.58
				c-23.45,9.76-44.5,12.78-47.01,6.75c-0.29-0.69-0.31-1.47-0.1-2.33c-3.88,3.85-5.65,7.23-4.65,9.64
				c2.86,6.88,27.17,3.32,54.29-7.96c27.12-11.28,46.79-26.01,43.92-32.9C153.02,64.93,149.38,63.8,143.91,63.84z"/>
		</g>
		<g>
			<g>
				<path class="st3" d="M48.37,137.17l-2.3-9.07h1.24l1.08,4.59c0.27,1.13,0.51,2.26,0.67,3.14h0.03c0.15-0.9,0.43-1.98,0.74-3.15
					l1.21-4.58h1.22l1.1,4.6c0.26,1.08,0.5,2.15,0.63,3.11h0.03c0.19-1,0.44-2,0.73-3.14l1.2-4.58h1.2l-2.57,9.07h-1.22l-1.14-4.72
					c-0.28-1.16-0.47-2.05-0.59-2.96h-0.03c-0.16,0.9-0.36,1.79-0.7,2.96l-1.29,4.72H48.37z"/>
				<path class="st3" d="M65.66,132.92h-3.53v3.27h3.93v0.98h-5.1v-9.07h4.9v0.98h-3.73v2.87h3.53V132.92z"/>
				<path class="st3" d="M71.74,134.32l-0.94,2.85h-1.21l3.08-9.07h1.41l3.1,9.07h-1.25l-0.97-2.85H71.74z M74.71,133.4l-0.89-2.61
					c-0.2-0.59-0.34-1.13-0.47-1.66h-0.03c-0.13,0.54-0.28,1.09-0.46,1.64l-0.89,2.62H74.71z"/>
				<path class="st3" d="M81.2,137.17v-9.07h1.28l2.91,4.59c0.67,1.06,1.2,2.02,1.63,2.95l0.03-0.01c-0.11-1.21-0.13-2.31-0.13-3.73
					v-3.8h1.1v9.07h-1.18l-2.88-4.6c-0.63-1.01-1.24-2.05-1.7-3.03l-0.04,0.01c0.07,1.14,0.09,2.23,0.09,3.74v3.88H81.2z"/>
				<path class="st3" d="M92.74,128.1h1.17v8.09h3.88v0.98h-5.05V128.1z"/>
				<path class="st3" d="M102.95,128.1v9.07h-1.17v-9.07H102.95z"/>
				<path class="st3" d="M119.57,136.88c-0.43,0.21-1.29,0.43-2.4,0.43c-2.56,0-4.48-1.62-4.48-4.59c0-2.84,1.92-4.76,4.74-4.76
					c1.13,0,1.84,0.24,2.15,0.4l-0.28,0.96c-0.44-0.22-1.08-0.38-1.83-0.38c-2.13,0-3.54,1.36-3.54,3.74c0,2.22,1.28,3.65,3.49,3.65
					c0.71,0,1.44-0.15,1.91-0.38L119.57,136.88z"/>
				<path class="st3" d="M125.25,134.32l-0.94,2.85h-1.21l3.08-9.07h1.41l3.1,9.07h-1.25l-0.97-2.85H125.25z M128.22,133.4
					l-0.89-2.61c-0.2-0.59-0.34-1.13-0.47-1.66h-0.03c-0.13,0.54-0.28,1.09-0.46,1.64l-0.89,2.62H128.22z"/>
				<path class="st3" d="M134.71,128.22c0.59-0.12,1.44-0.19,2.25-0.19c1.25,0,2.06,0.23,2.62,0.74c0.46,0.4,0.71,1.02,0.71,1.72
					c0,1.2-0.75,1.99-1.71,2.31v0.04c0.7,0.24,1.12,0.89,1.33,1.83c0.3,1.27,0.51,2.14,0.7,2.49h-1.21
					c-0.15-0.26-0.35-1.04-0.61-2.17c-0.27-1.25-0.75-1.72-1.82-1.76h-1.1v3.93h-1.17V128.22z M135.88,132.35h1.2
					c1.25,0,2.05-0.69,2.05-1.72c0-1.17-0.85-1.68-2.09-1.7c-0.57,0-0.97,0.05-1.16,0.11V132.35z"/>
				<path class="st3" d="M149.33,132.92h-3.53v3.27h3.93v0.98h-5.1v-9.07h4.9v0.98h-3.73v2.87h3.53V132.92z"/>
			</g>
		</g>
	</g>
</g>
</svg>
