<?xml version="1.0" encoding="utf-8"?>
<!-- Generator: Adobe Illustrator 27.0.0, SVG Export Plug-In . SVG Version: 6.00 Build 0)  -->
<svg version="1.1" xmlns="http://www.w3.org/2000/svg" xmlns:xlink="http://www.w3.org/1999/xlink" x="0px" y="0px"
	 viewBox="0 0 200.17 200.17" style="enable-background:new 0 0 200.17 200.17;" xml:space="preserve">
<style type="text/css">
	.st0{fill:#FFFFFF;}
	.st1{clip-path:url(#SVGID_00000115488997035809282690000007283868574410084240_);}
	.st2{fill:#E5E5E5;}
	.st3{fill:#444444;}
	.st4{fill:#9C9C9C;}
	.st5{clip-path:url(#SVGID_00000034786442467152021170000010248373699005008516_);}
	.st6{clip-path:url(#SVGID_00000054239669871598523650000011093513084384586431_);}
	.st7{clip-path:url(#SVGID_00000171001483358316924170000000510404047407372680_);}
	.st8{fill:#3F3F69;}
	.st9{fill:#E5E5E6;}
	.st10{fill:#65AFCD;}
</style>
<g id="BACKGROUND">
</g>
<g id="OBJECTS">
	<g>
		<g>
			<g>
				<polygon class="st4" points="142.77,73.09 120.15,73.09 120.15,50.46 86.66,50.46 86.66,73.09 64.03,73.09 64.03,106.57 
					86.66,106.57 86.66,129.2 120.15,129.2 120.15,106.57 142.77,106.57 				"/>
			</g>
			<g>
				<path class="st3" d="M102.79,111.62c14.92-5.26,23.46-16.16,23.46-23.72c0-7.56-6.13-13.7-13.7-13.7
					c-3.78,0-7.29,1.53-9.76,4.01c-2.48-2.48-5.98-4.01-9.76-4.01c-7.56,0-13.7,6.13-13.7,13.7
					C79.33,95.47,87.87,106.37,102.79,111.62z"/>
			</g>
			<g>
				<g>
					<path class="st0" d="M81.51,112.43v6.44c0,0,51.5,0,52.79-32.96c0.33-8.47,0.56-13.68,0.72-16.77l-8.18-0.74
						C126.84,68.39,112.16,111.91,81.51,112.43z"/>
				</g>
				<g>
					<path class="st0" d="M135.02,69.14l0.31,0.03C135.34,69.17,135.48,60.21,135.02,69.14z"/>
				</g>
			</g>
			<g>
				<path class="st4" d="M112.45,103.04c-15.88,13.24-36.97,16.11-55.05,9.38c17.51,17.77,46.01,19.44,65.52,3.17
					c19.5-16.26,22.98-44.6,8.64-65.02C134.94,69.56,128.33,89.79,112.45,103.04z"/>
			</g>
		</g>
		<g>
			<g>
				<g>
					<path class="st3" d="M44.97,149.71v-9.07h1.28l2.91,4.59c0.67,1.06,1.2,2.02,1.63,2.95l0.03-0.01
						c-0.11-1.21-0.13-2.31-0.13-3.73v-3.8h1.1v9.07h-1.18l-2.88-4.6c-0.63-1.01-1.24-2.05-1.7-3.03l-0.04,0.01
						c0.07,1.14,0.09,2.23,0.09,3.74v3.88H44.97z"/>
				</g>
				<g>
					<path class="st3" d="M61.21,145.46h-3.53v3.27h3.93v0.98h-5.1v-9.07h4.9v0.98h-3.73v2.87h3.53V145.46z"/>
				</g>
				<g>
					<path class="st3" d="M67.29,146.85l-0.94,2.85h-1.21l3.08-9.07h1.41l3.09,9.07h-1.25l-0.97-2.85H67.29z M70.26,145.94
						l-0.89-2.61c-0.2-0.59-0.34-1.13-0.47-1.66h-0.03c-0.13,0.54-0.28,1.09-0.46,1.64l-0.89,2.62H70.26z"/>
				</g>
				<g>
					<path class="st3" d="M76.75,140.64h1.17v8.09h3.88v0.98h-5.05V140.64z"/>
				</g>
				<g>
					<path class="st3" d="M86.33,141.63h-2.76v-1h6.72v1h-2.77v8.08h-1.18V141.63z"/>
				</g>
				<g>
					<path class="st3" d="M100.7,140.64v3.8h4.39v-3.8h1.18v9.07h-1.18v-4.25h-4.39v4.25h-1.17v-9.07H100.7z"/>
				</g>
				<g>
					<path class="st3" d="M115.69,145.46h-3.53v3.27h3.93v0.98h-5.1v-9.07h4.9v0.98h-3.73v2.87h3.53V145.46z"/>
				</g>
				<g>
					<path class="st3" d="M121.77,146.85l-0.94,2.85h-1.21l3.08-9.07h1.41l3.1,9.07h-1.25l-0.97-2.85H121.77z M124.74,145.94
						l-0.89-2.61c-0.2-0.59-0.34-1.13-0.47-1.66h-0.03c-0.13,0.54-0.28,1.09-0.46,1.64l-0.89,2.62H124.74z"/>
				</g>
				<g>
					<path class="st3" d="M131.23,140.64h1.17v8.09h3.88v0.98h-5.05V140.64z"/>
				</g>
				<g>
					<path class="st3" d="M140.81,141.63h-2.76v-1h6.72v1h-2.77v8.08h-1.18V141.63z"/>
				</g>
				<g>
					<path class="st3" d="M149.63,140.64v3.8h4.39v-3.8h1.18v9.07h-1.18v-4.25h-4.39v4.25h-1.17v-9.07H149.63z"/>
				</g>
			</g>
		</g>
	</g>
</g>
</svg>
