<?xml version="1.0" encoding="utf-8"?>
<!-- Generator: Adobe Illustrator 27.0.0, SVG Export Plug-In . SVG Version: 6.00 Build 0)  -->
<svg version="1.1" xmlns="http://www.w3.org/2000/svg" xmlns:xlink="http://www.w3.org/1999/xlink" x="0px" y="0px"
	 viewBox="0 0 200.17 200.17" style="enable-background:new 0 0 200.17 200.17;" xml:space="preserve">
<style type="text/css">
	.st0{fill:#FFFFFF;}
	.st1{clip-path:url(#SVGID_00000012431544702009495790000005666190249785048487_);}
	.st2{fill:#E5E5E5;}
	.st3{fill:#444444;}
	.st4{fill:#9C9C9C;}
	.st5{clip-path:url(#SVGID_00000078757085887969739990000004392683504885352379_);}
	.st6{clip-path:url(#SVGID_00000181051245987601467960000007429889484286283424_);}
	.st7{clip-path:url(#SVGID_00000010285782171346462670000017463203288911673218_);}
	.st8{fill:#3F3F69;}
	.st9{fill:#E5E5E6;}
	.st10{fill:#65AFCD;}
</style>
<g id="BACKGROUND">
</g>
<g id="OBJECTS">
	<g>
		<g>
			<g>
				<path class="st4" d="M99.11,129.28c31.21-11,49.08-33.81,49.08-49.63s-12.83-28.65-28.66-28.65c-7.91,0-15.24,3.21-20.43,8.39
					c-5.18-5.18-12.51-8.39-20.43-8.39c-15.83,0-28.65,12.83-28.65,28.65S67.9,118.28,99.11,129.28z"/>
			</g>
			<g>
				<path class="st3" d="M99.11,129.28c22.03-7.76,34.64-23.86,34.64-35.03c0-11.17-9.05-20.22-20.22-20.22
					c-5.58,0-10.76,2.26-14.42,5.92c-3.66-3.66-8.83-5.92-14.42-5.92c-11.17,0-20.22,9.05-20.22,20.22
					C64.47,105.42,77.09,121.51,99.11,129.28z"/>
			</g>
			<g>
				<g>
					<path class="st0" d="M106.61,70.57c0,4.26-3.45,7.71-7.71,7.71c-4.26,0-7.71-3.45-7.71-7.71c0-4.26,3.45-7.71,7.71-7.71
						C103.15,62.86,106.61,66.31,106.61,70.57z"/>
				</g>
				<g>
					<path class="st0" d="M99.11,75.09c-1.2-1.2-2.57,2.64-4.05,1.77l1.68,51.53c0.78,0.31,1.56,0.6,2.37,0.88
						c0.65-0.23,1.29-0.47,1.92-0.71l1.68-51.44C101.41,77.94,100.19,74.02,99.11,75.09z"/>
				</g>
				<g>
					<path class="st0" d="M112.49,77.47c-2.58,5.06-11.14,7.59-11.14,7.59l-0.32,7.86c2.95,8.66,10.72,4.57,13.29,2.92
						c-0.01-2.57-0.3-4.86-0.3-4.86c0.32,1.82,0.96,3.36,1.73,4.67c6.3,4.01,9.52,0.9,10.85-1.21c-1.01-3.35-3.32-7.19-3.32-7.19
						c3.45,5.13,8.89,6.11,10.62,6.29c5.1-1.73,6.05-9.12,6.05-9.12C126.59,87.75,112.49,77.47,112.49,77.47z"/>
				</g>
				<g>
					<path class="st0" d="M85.74,77.47c2.58,5.06,11.14,7.59,11.14,7.59l0.32,7.86c-2.95,8.66-10.72,4.57-13.29,2.92
						c0.01-2.57,0.3-4.86,0.3-4.86c-0.32,1.82-0.96,3.36-1.73,4.67c-6.3,4.01-9.53,0.9-10.85-1.21c1.01-3.35,3.32-7.19,3.32-7.19
						c-3.44,5.13-8.89,6.11-10.62,6.29c-5.09-1.73-6.05-9.12-6.05-9.12C71.64,87.75,85.74,77.47,85.74,77.47z"/>
				</g>
			</g>
		</g>
		<g>
			<g>
				<g>
					<path class="st3" d="M45.08,148.64c-0.52,0.19-1.56,0.5-2.79,0.5c-1.37,0-2.5-0.35-3.39-1.2c-0.78-0.75-1.27-1.96-1.27-3.38
						c0.01-2.71,1.87-4.68,4.91-4.68c1.05,0,1.87,0.23,2.26,0.42l-0.28,0.96c-0.48-0.22-1.09-0.39-2.01-0.39
						c-2.21,0-3.65,1.37-3.65,3.65c0,2.3,1.39,3.66,3.5,3.66c0.77,0,1.29-0.11,1.56-0.24v-2.71H42.1v-0.94h2.99V148.64z"/>
					<path class="st3" d="M49.56,140.1c0.59-0.12,1.44-0.19,2.25-0.19c1.25,0,2.06,0.23,2.62,0.74c0.46,0.4,0.71,1.02,0.71,1.72
						c0,1.2-0.75,1.99-1.71,2.32v0.04c0.7,0.24,1.12,0.89,1.33,1.83c0.3,1.27,0.51,2.14,0.7,2.49h-1.21
						c-0.15-0.26-0.35-1.04-0.61-2.17c-0.27-1.25-0.75-1.72-1.82-1.76h-1.1v3.93h-1.17V140.1z M50.73,144.23h1.2
						c1.25,0,2.05-0.69,2.05-1.72c0-1.17-0.85-1.68-2.09-1.7c-0.57,0-0.97,0.05-1.16,0.11V144.23z"/>
					<path class="st3" d="M61.03,146.19l-0.94,2.85h-1.21l3.08-9.07h1.41l3.1,9.07h-1.25l-0.97-2.85H61.03z M64,145.28l-0.89-2.61
						c-0.2-0.59-0.34-1.13-0.47-1.66h-0.03c-0.13,0.54-0.28,1.09-0.46,1.64l-0.89,2.62H64z"/>
					<path class="st3" d="M76.62,148.75c-0.43,0.21-1.29,0.43-2.4,0.43c-2.56,0-4.48-1.62-4.48-4.59c0-2.84,1.92-4.76,4.74-4.76
						c1.13,0,1.84,0.24,2.15,0.4l-0.28,0.96c-0.44-0.22-1.08-0.38-1.83-0.38c-2.13,0-3.54,1.36-3.54,3.74
						c0,2.22,1.28,3.65,3.49,3.65c0.71,0,1.44-0.15,1.91-0.38L76.62,148.75z"/>
					<path class="st3" d="M85.47,144.79h-3.53v3.27h3.93v0.98h-5.1v-9.07h4.9v0.98h-3.73v2.87h3.53V144.79z"/>
					<path class="st3" d="M103.28,145.06c-0.07-1.27-0.15-2.79-0.13-3.92h-0.04c-0.31,1.06-0.69,2.19-1.14,3.45l-1.6,4.4h-0.89
						L98,144.67c-0.43-1.28-0.79-2.45-1.05-3.53h-0.03c-0.03,1.13-0.09,2.65-0.18,4.01l-0.24,3.89h-1.12l0.63-9.07h1.49l1.55,4.39
						c0.38,1.12,0.69,2.11,0.92,3.05h0.04c0.23-0.92,0.55-1.91,0.96-3.05l1.62-4.39h1.49l0.57,9.07h-1.14L103.28,145.06z"/>
					<path class="st3" d="M113.84,144.79h-3.53v3.27h3.93v0.98h-5.1v-9.07h4.9v0.98h-3.73v2.87h3.53V144.79z"/>
					<path class="st3" d="M118.45,140.1c0.71-0.11,1.56-0.19,2.49-0.19c1.68,0,2.88,0.39,3.67,1.13c0.81,0.74,1.28,1.79,1.28,3.26
						c0,1.48-0.46,2.69-1.31,3.53c-0.85,0.85-2.25,1.31-4.01,1.31c-0.83,0-1.53-0.04-2.13-0.11V140.1z M119.62,148.12
						c0.3,0.05,0.73,0.07,1.18,0.07c2.5,0,3.86-1.4,3.86-3.85c0.01-2.14-1.2-3.5-3.67-3.5c-0.61,0-1.06,0.05-1.37,0.12V148.12z"/>
					<path class="st3" d="M131.27,139.97v9.07h-1.17v-9.07H131.27z"/>
					<path class="st3" d="M142.35,148.75c-0.43,0.21-1.29,0.43-2.4,0.43c-2.56,0-4.48-1.62-4.48-4.59c0-2.84,1.92-4.76,4.74-4.76
						c1.13,0,1.84,0.24,2.15,0.4l-0.28,0.96c-0.44-0.22-1.08-0.38-1.83-0.38c-2.13,0-3.54,1.36-3.54,3.74
						c0,2.22,1.28,3.65,3.49,3.65c0.71,0,1.44-0.15,1.91-0.38L142.35,148.75z"/>
					<path class="st3" d="M148.02,146.19l-0.94,2.85h-1.21l3.08-9.07h1.41l3.1,9.07h-1.25l-0.97-2.85H148.02z M151,145.28
						l-0.89-2.61c-0.2-0.59-0.34-1.13-0.47-1.66h-0.03c-0.13,0.54-0.28,1.09-0.46,1.64l-0.89,2.62H151z"/>
					<path class="st3" d="M157.48,139.97h1.17v8.09h3.88v0.98h-5.05V139.97z"/>
				</g>
			</g>
		</g>
	</g>
</g>
</svg>
