<?xml version="1.0" encoding="utf-8"?>
<!-- Generator: Adobe Illustrator 27.0.0, SVG Export Plug-In . SVG Version: 6.00 Build 0)  -->
<svg version="1.1" xmlns="http://www.w3.org/2000/svg" xmlns:xlink="http://www.w3.org/1999/xlink" x="0px" y="0px"
	 viewBox="0 0 200.17 200.17" style="enable-background:new 0 0 200.17 200.17;" xml:space="preserve">
<style type="text/css">
	.st0{fill:#FFFFFF;}
	.st1{clip-path:url(#SVGID_00000062159611179203880460000012579529851147193523_);}
	.st2{fill:#E5E5E5;}
	.st3{fill:#444444;}
	.st4{fill:#9C9C9C;}
	.st5{clip-path:url(#SVGID_00000102536525409278958590000004168859668496242606_);}
	.st6{clip-path:url(#SVGID_00000145034278822350574240000017237648558773280433_);}
	.st7{clip-path:url(#SVGID_00000132072292287820296290000000626910731000418180_);}
	.st8{fill:#3F3F69;}
	.st9{fill:#E5E5E6;}
	.st10{fill:#65AFCD;}
</style>
<g id="BACKGROUND">
</g>
<g id="OBJECTS">
	<g>
		<g>
			<g>
				<circle class="st2" cx="99.82" cy="87.68" r="43.72"/>
			</g>
			<g>
				<defs>
					<path id="SVGID_00000082352597479844300870000010288554213224559492_" d="M143.55,87.68c0,24.15-19.57,43.72-43.72,43.72
						S56.1,111.82,56.1,87.68c0-12.29-9.22-23.59-1.06-34.95c7.88-10.96,32.92-18.92,44.78-18.92c13.48,0,41.01,10.28,49.03,23.56
						C155.2,67.88,143.55,77.01,143.55,87.68z"/>
				</defs>
				<clipPath id="SVGID_00000152225653892093177920000008787326263239842972_">
					<use xlink:href="#SVGID_00000082352597479844300870000010288554213224559492_"  style="overflow:visible;"/>
				</clipPath>
				<g style="clip-path:url(#SVGID_00000152225653892093177920000008787326263239842972_);">
					<g>
						<g>
							<g>
								<path class="st3" d="M102.7,58.45c0,0,8.35-2.47,10.88-7.41c0,0,13.77,10.04,26.8,6.78c0,0-1.65,12.79-12.29,8.3
									c0,0-2.84,8.51-11.9,2.29c0,0-10.32,7.91-13.79-2.29"/>
							</g>
						</g>
						<g>
							<g>
								<path class="st3" d="M97.65,58.45c0,0-8.36-2.47-10.88-7.41c0,0-13.77,10.04-26.8,6.78c0,0,1.66,12.79,12.3,8.3
									c0,0,2.84,8.51,11.9,2.29c0,0,10.33,7.91,13.79-2.29"/>
							</g>
						</g>
					</g>
					<g>
						<path class="st3" d="M107.7,44.24c0,4.16-3.37,7.53-7.53,7.53c-4.16,0-7.53-3.37-7.53-7.53s3.37-7.53,7.53-7.53
							C104.33,36.72,107.7,40.09,107.7,44.24z"/>
					</g>
					<g>
						<polygon class="st3" points="96.26,44.92 100.18,164.98 104.09,44.92 						"/>
					</g>
					<g>
						<g>
							<g>
								<g>
									<path class="st4" d="M97.41,143.24c0.14-0.07,0.31-0.14,0.49-0.22c-0.63-0.56-1.05-1.22-0.97-2
										c0.03-0.32,0.13-0.59,0.28-0.84c-0.62-0.08-1.2-0.17-1.69-0.29c-2.36-0.6-4.75-1.29-6.87-2.33
										c-1.15,0.99-1.86,2.01-2.15,3.07c-0.3,1.09-0.14,2.19,0.45,3.17c0.82,1.37,2.77,2.57,4.97,3.58
										C93.63,144.84,96.25,143.72,97.41,143.24z"/>
								</g>
								<g>
									<path class="st4" d="M101.82,151.84c0.16,0.26,0.27,0.56,0.32,0.89c0.13,1.01-0.32,2-0.89,2.87
										c1.16,1.35,2.65,2.57,4.34,3.54c1.25-1.85,2.08-4,2.02-6.42c-0.02-1.04-0.21-1.94-0.51-2.73
										c-1.57,0.63-3.26,1.21-4.96,1.75L101.82,151.84z"/>
								</g>
								<g>
									<path class="st4" d="M94.89,106.66c0.45-0.22,0.9-0.42,1.36-0.6c-0.58-0.12-1.17-0.24-1.76-0.35
										c-2.1-0.42-4.26-0.84-6.38-1.47c-3.25,2.03-5.13,4.12-5.74,6.34c-0.42,1.56-0.2,3.13,0.64,4.54
										c1.22,2.05,3.2,3.37,5.38,4.32c1.65-1.06,3.42-1.9,5.03-2.55c0.8-0.32,1.61-0.6,2.42-0.86c-1.79-0.44-3.88-1.15-4.74-2.9
										C89.66,110.15,92.6,107.79,94.89,106.66z"/>
								</g>
								<g>
									<path class="st4" d="M93.79,161.71c-0.18,0.08-0.36,0.17-0.54,0.25c-1.41,0.61-2.06,2.24-1.46,3.65
										c0.45,1.06,1.48,1.69,2.56,1.69c0.37,0,0.74-0.07,1.09-0.23c0.15-0.06,1.22-0.53,2.68-1.38
										C96.66,164.62,95.12,163.29,93.79,161.71z"/>
								</g>
								<g>
									<path class="st4" d="M124.64,82.28c-1.42-5.26-4.64-7.4-7.1-8.26c-4.64-1.63-10.01,0.05-12.34,1.76
										c-1.24,0.91-1.51,2.65-0.6,3.89c0.91,1.24,2.65,1.51,3.89,0.6c0.92-0.68,4.42-1.97,7.2-0.99c1.76,0.62,2.92,2.07,3.57,4.45
										c0.56,2.08,0.15,5.36-0.91,7.16c-1.05,1.8-2.75,3.38-4.9,4.56c-2.64,1.46-6.31,2.27-8.99,2.87
										c-0.17,0.04-0.35,0.08-0.52,0.12c2.44,0.79,4.87,1.76,7.24,3.06c0.32,0.17,0.63,0.35,0.93,0.53
										c0.47-0.16,0.95-0.32,1.41-0.5c3.93-1.53,7.5-4.15,9.65-7.82C124.97,90.62,125.59,85.81,124.64,82.28z"/>
								</g>
								<g>
									<path class="st4" d="M111.32,121.72c-1.31,0.5-2.65,0.89-3.94,1.24c-1.2,0.33-2.51,0.64-4.08,0.99
										c1.49,0.86,2.6,2.08,2.6,3.91c0,1.88-0.92,3.04-2.23,3.81c2.2,0.54,3.99,1.21,5.6,2.09c0.82,0.45,1.56,0.91,2.22,1.38
										c1.41-0.85,2.64-1.94,3.5-3.37c0.84-1.41,1.07-2.99,0.64-4.54C115.01,124.98,113.32,123.17,111.32,121.72z"/>
								</g>
							</g>
							<g>
								<path class="st4" d="M75.31,82.28c1.42-5.26,4.64-7.4,7.1-8.26c4.64-1.63,10.01,0.05,12.34,1.76
									c1.24,0.91,1.51,2.65,0.6,3.89c-0.91,1.24-2.65,1.51-3.89,0.6c-0.93-0.68-4.42-1.97-7.2-0.99
									c-1.76,0.62-2.92,2.07-3.57,4.45c-0.56,2.08-0.15,5.36,0.91,7.16c1.05,1.8,2.75,3.38,4.9,4.56
									c2.64,1.46,6.31,2.27,8.99,2.87c4.84,1.08,9.97,2.35,14.71,4.95c4.26,2.34,6.67,4.72,7.37,7.3c0.42,1.56,0.2,3.13-0.64,4.54
									c-2.09,3.5-6.38,4.89-10.08,5.89c-1.41,0.38-2.84,0.72-4.27,1.03c-3,0.65-8.53,1.75-8.53,5.82c0,4.56,5.42,4.91,8.73,5.68
									c1.92,0.45,3.78,1.05,5.52,2c2.98,1.63,4.66,3.3,5.15,5.1c0.3,1.09,0.14,2.19-0.45,3.17c-1.65,2.76-7.93,4.88-11.48,6.01
									c0,0,0.01-0.03,0-0.03c-1.41,0.51-3.49,1.21-3.71,2.95c-0.18,1.47,0.84,2.92,1.72,3.99c1.89,2.28,4.45,4.07,7.15,5.23
									c1.41,0.61,2.06,2.24,1.46,3.65c-0.45,1.06-1.48,1.69-2.56,1.69c-0.37,0-0.74-0.07-1.09-0.23
									c-0.5-0.21-12.36-5.4-12.15-14.35c0.1-4.47,3.08-6.45,5.89-7.63c1.38-0.65,5.01-1.88,4.79-4.08
									c-0.28-2.73-5.14-2.62-6.99-3.09c-3.98-1.02-8.81-2.39-11.06-6.16c-0.84-1.41-1.07-2.99-0.64-4.54
									c1.14-4.21,6.11-6.96,9.85-8.46c3.11-1.25,6.4-1.91,9.66-2.67c1.84-0.43,4.1-1.12,5-2.96c1.45-2.98-1.49-5.34-3.78-6.47
									c-5.83-2.86-12.6-2.79-18.62-5.13c-3.92-1.53-7.5-4.15-9.65-7.82C74.98,90.62,74.35,85.81,75.31,82.28z"/>
							</g>
						</g>
						<g>
							<path class="st4" d="M116.32,77.36c0.95,2.84-1.35,6.18-5.14,7.44s-7.64-0.01-8.59-2.85c-0.95-2.84,1.35-6.18,5.14-7.44
								C111.52,73.24,115.37,74.51,116.32,77.36z"/>
						</g>
						<g>
							<path class="st4" d="M83.67,77.36c-0.95,2.84,1.35,6.18,5.14,7.44c3.79,1.27,7.64-0.01,8.59-2.85
								c0.95-2.84-1.35-6.18-5.14-7.44C88.46,73.24,84.62,74.51,83.67,77.36z"/>
						</g>
					</g>
				</g>
			</g>
		</g>
		<g>
			<g>
				<path class="st3" d="M75.76,144.43v4.2c-0.48,0.51-1.06,0.9-1.76,1.18s-1.46,0.41-2.29,0.41c-1,0-1.87-0.2-2.62-0.61
					c-0.75-0.4-1.33-0.98-1.74-1.72s-0.61-1.61-0.61-2.6c0-0.96,0.22-1.81,0.65-2.56c0.43-0.75,1.03-1.33,1.81-1.75
					c0.78-0.42,1.67-0.63,2.67-0.63c0.73,0,1.38,0.13,1.97,0.38c0.59,0.25,1.13,0.63,1.62,1.14l-1.33,1.32
					c-0.3-0.3-0.64-0.52-1.04-0.69c-0.4-0.16-0.81-0.24-1.23-0.24c-0.91,0-1.62,0.27-2.15,0.81c-0.52,0.54-0.79,1.28-0.79,2.21
					c0,0.6,0.12,1.13,0.35,1.59c0.23,0.46,0.57,0.81,1,1.06s0.93,0.38,1.49,0.38c0.89,0,1.6-0.23,2.13-0.69v-1.44h-2.56v-1.76H75.76
					z"/>
				<path class="st3" d="M81.96,149.62c-0.77-0.41-1.36-0.98-1.78-1.73c-0.42-0.74-0.62-1.61-0.62-2.6c0-0.99,0.21-1.85,0.62-2.6
					c0.42-0.75,1.01-1.32,1.78-1.73s1.66-0.61,2.67-0.61s1.9,0.2,2.67,0.61s1.36,0.98,1.78,1.73c0.42,0.74,0.63,1.61,0.63,2.6
					c0,0.99-0.21,1.85-0.63,2.6c-0.42,0.74-1.01,1.32-1.78,1.73s-1.66,0.61-2.67,0.61S82.72,150.03,81.96,149.62z M86.13,147.9
					c0.44-0.25,0.77-0.59,1.01-1.04c0.24-0.45,0.36-0.97,0.36-1.56s-0.12-1.11-0.36-1.56c-0.24-0.45-0.57-0.8-1.01-1.04
					c-0.43-0.25-0.93-0.37-1.5-0.37s-1.06,0.12-1.49,0.37s-0.77,0.59-1,1.04c-0.24,0.45-0.36,0.97-0.36,1.56s0.12,1.11,0.36,1.56
					s0.57,0.8,1,1.04s0.93,0.37,1.49,0.37S85.69,148.14,86.13,147.9z"/>
				<path class="st3" d="M105,140.58h2.41l-3.3,9.42h-2.08l-0.89-2.62l-1.08-3.16l-1.05,3.16l-0.9,2.62h-2.04l-3.31-9.42h2.41
					l1.18,3.75l0.77,2.68l2.14-6.43h1.59l2.19,6.47l0.82-2.72L105,140.58z"/>
				<path class="st3" d="M111.24,140.58h2.21V150h-2.21V140.58z"/>
				<path class="st3" d="M124.41,140.58h2.19V150h-1.98l-4.27-5.83l0.03,2.54V150h-2.19v-9.42h1.98l4.27,5.85l-0.03-2.52V140.58z"/>
				<path class="st3" d="M25.51,164.29h5.19v1.86h-7.33v-9.42h7.18v1.84h-5.04v1.91h4.78v1.78h-4.78V164.29z"/>
				<path class="st3" d="M43.43,156.73h1.98v9.42h-2.19v-5.89l-2.77,3.39h-0.43l-2.8-3.4v5.91h-2.19v-9.42H37l3.22,4.01
					L43.43,156.73z"/>
				<path class="st3" d="M52.29,164.29h5.19v1.86h-7.33v-9.42h7.19v1.84h-5.05v1.91h4.78v1.78h-4.78V164.29z"/>
				<path class="st3" d="M65.28,163.04h-1.28v3.11H61.8v-9.42h4.59c0.68,0,1.28,0.13,1.79,0.4s0.91,0.64,1.18,1.12
					c0.28,0.48,0.42,1.04,0.42,1.67c0,0.72-0.19,1.33-0.56,1.84c-0.37,0.51-0.9,0.88-1.58,1.09l2.66,3.3h-2.62L65.28,163.04z
					 M67.21,158.96c-0.26-0.23-0.62-0.35-1.08-0.35h-2.14v2.65h2.14c0.48,0,0.84-0.11,1.09-0.34c0.25-0.23,0.38-0.55,0.38-0.98
					C67.6,159.52,67.47,159.2,67.21,158.96z"/>
				<path class="st3" d="M82.65,160.58v4.2c-0.48,0.51-1.06,0.9-1.76,1.18s-1.46,0.41-2.29,0.41c-1,0-1.87-0.2-2.62-0.61
					c-0.75-0.4-1.33-0.98-1.74-1.72s-0.61-1.61-0.61-2.6c0-0.96,0.22-1.81,0.65-2.56c0.43-0.75,1.03-1.33,1.81-1.75
					c0.78-0.42,1.67-0.63,2.67-0.63c0.73,0,1.38,0.13,1.97,0.38c0.59,0.25,1.13,0.63,1.62,1.14l-1.33,1.32
					c-0.3-0.3-0.64-0.52-1.04-0.69c-0.4-0.16-0.81-0.24-1.23-0.24c-0.91,0-1.62,0.27-2.15,0.81c-0.52,0.54-0.79,1.28-0.79,2.21
					c0,0.6,0.12,1.13,0.35,1.59c0.23,0.46,0.57,0.81,1,1.06s0.93,0.38,1.49,0.38c0.89,0,1.6-0.23,2.13-0.69v-1.44h-2.56v-1.76H82.65
					z"/>
				<path class="st3" d="M89.13,164.29h5.19v1.86h-7.33v-9.42h7.19v1.84h-5.05v1.91h4.78v1.78h-4.78V164.29z"/>
				<path class="st3" d="M104.85,156.73h2.19v9.42h-1.98l-4.27-5.83l0.03,2.54v3.28h-2.19v-9.42h1.98l4.27,5.85l-0.03-2.52V156.73z"
					/>
				<path class="st3" d="M113.65,165.74c-0.77-0.41-1.36-0.99-1.78-1.74c-0.42-0.74-0.63-1.6-0.63-2.57s0.21-1.83,0.64-2.58
					c0.43-0.75,1.02-1.33,1.78-1.74s1.63-0.61,2.61-0.61c1.39,0,2.58,0.49,3.58,1.47l-1.36,1.36c-0.6-0.57-1.32-0.86-2.17-0.86
					c-0.56,0-1.07,0.12-1.5,0.37c-0.44,0.25-0.77,0.59-1.01,1.04c-0.24,0.45-0.36,0.96-0.36,1.55s0.12,1.1,0.36,1.55
					c0.24,0.45,0.57,0.8,1.01,1.04c0.43,0.25,0.94,0.37,1.5,0.37c0.45,0,0.88-0.08,1.29-0.24c0.41-0.16,0.77-0.39,1.08-0.7
					l1.29,1.44c-1.01,0.98-2.24,1.47-3.67,1.47C115.3,166.36,114.41,166.16,113.65,165.74z"/>
				<path class="st3" d="M132.46,156.73l-3.83,5.73v3.69h-2.19v-3.69l-3.7-5.73h2.58l2.23,3.66l2.29-3.66H132.46z"/>
				<path class="st3" d="M141.57,156.73h2.21v7.43h4.74v1.99h-6.94V156.73z"/>
				<path class="st3" d="M158.42,156.73v1.92h-2.88v7.49h-2.21v-7.49h-2.87v-1.92H158.42z"/>
				<path class="st3" d="M168.74,157.31c0.73,0.39,1.3,0.94,1.7,1.65c0.4,0.71,0.6,1.54,0.6,2.48c0,0.94-0.2,1.77-0.6,2.48
					c-0.4,0.71-0.96,1.26-1.7,1.65c-0.73,0.39-1.58,0.58-2.55,0.58h-3.86v-9.42h3.86C167.16,156.73,168.01,156.92,168.74,157.31z
					 M168.11,163.47c0.48-0.5,0.73-1.18,0.73-2.03c0-0.57-0.11-1.06-0.33-1.47s-0.53-0.74-0.93-0.97c-0.4-0.23-0.86-0.34-1.38-0.34
					h-1.66v5.57h1.66C166.98,164.22,167.62,163.97,168.11,163.47z"/>
				<path class="st3" d="M174.71,165.96c-0.23-0.21-0.34-0.49-0.34-0.82s0.11-0.61,0.34-0.82c0.23-0.21,0.52-0.32,0.88-0.32
					c0.35,0,0.64,0.11,0.87,0.32c0.23,0.22,0.34,0.49,0.34,0.82s-0.11,0.61-0.34,0.82c-0.23,0.22-0.52,0.32-0.87,0.32
					C175.23,166.28,174.93,166.18,174.71,165.96z"/>
			</g>
		</g>
	</g>
</g>
</svg>
