<?xml version="1.0" encoding="utf-8"?>
<!-- Generator: Adobe Illustrator 27.0.0, SVG Export Plug-In . SVG Version: 6.00 Build 0)  -->
<svg version="1.1" xmlns="http://www.w3.org/2000/svg" xmlns:xlink="http://www.w3.org/1999/xlink" x="0px" y="0px"
	 viewBox="0 0 200.17 200.17" style="enable-background:new 0 0 200.17 200.17;" xml:space="preserve">
<style type="text/css">
	.st0{fill:#FFFFFF;}
	.st1{clip-path:url(#SVGID_00000100366372112264646940000002948052423324537512_);}
	.st2{fill:#E5E5E5;}
	.st3{fill:#444444;}
	.st4{fill:#9C9C9C;}
	.st5{clip-path:url(#SVGID_00000010275048406158156700000002301767839515577995_);}
	.st6{clip-path:url(#SVGID_00000020392761093170624650000001026637998503723446_);}
	.st7{clip-path:url(#SVGID_00000039124368586670388250000000755092861148378789_);}
	.st8{fill:#3F3F69;}
	.st9{fill:#E5E5E6;}
	.st10{fill:#65AFCD;}
</style>
<g id="BACKGROUND">
</g>
<g id="OBJECTS">
	<g>
		<g>
			<g>
				<defs>
					<path id="SVGID_1_" d="M149.24,89.59c0,29.2-23.67,52.88-52.88,52.88c-29.2,0-52.88-23.67-52.88-52.88
						c0-29.2,23.67-52.88,52.88-52.88C121.49,36.72,149.24,59.67,149.24,89.59z"/>
				</defs>
				<clipPath id="SVGID_00000034807542555968660410000007643725221598032266_">
					<use xlink:href="#SVGID_1_"  style="overflow:visible;"/>
				</clipPath>
				<g style="clip-path:url(#SVGID_00000034807542555968660410000007643725221598032266_);">
					<path class="st2" d="M132.42,89.59c0,19.91-16.14,36.05-36.05,36.05c-19.91,0-36.05-16.14-36.05-36.05
						c0-19.91,16.14-36.05,36.05-36.05C113.5,53.54,132.42,69.19,132.42,89.59z"/>
				</g>
				<g style="clip-path:url(#SVGID_00000034807542555968660410000007643725221598032266_);">
					<g>
						<path class="st3" d="M77.55,120.45c-20.9,1.33-37.13,4.42-37.13,4.42l-0.95-38.44c0,0,16.72-3.18,38.08-4.47V120.45z
							 M115.18,120.45c20.9,1.33,37.13,4.42,37.13,4.42l0.95-38.44c0,0-16.72-3.18-38.08-4.47V120.45z"/>
					</g>
					<g>
						<path class="st4" d="M97.53,67.7c-24.97,0-46.02,3.26-46.02,3.26v38.46c0,0,21.05-3.26,46.02-3.26
							c24.97,0,43.7,3.26,43.7,3.26V70.97C141.22,70.97,122.49,67.7,97.53,67.7z"/>
					</g>
					<g>
						<polygon class="st0" points="107.78,82.93 101.22,82.93 101.22,76.37 91.51,76.37 91.51,82.93 84.95,82.93 84.95,92.65 
							91.51,92.65 91.51,99.21 101.22,99.21 101.22,92.65 107.78,92.65 						"/>
					</g>
				</g>
			</g>
		</g>
		<g>
			<g>
				<g>
					<path class="st3" d="M62.24,137.68h2.21v7.43h4.74v1.99h-6.94V137.68z"/>
					<path class="st3" d="M74.84,146.71c-0.77-0.41-1.36-0.98-1.78-1.73c-0.42-0.74-0.63-1.61-0.63-2.6c0-0.99,0.21-1.85,0.63-2.6
						s1.01-1.32,1.78-1.73c0.77-0.41,1.66-0.61,2.67-0.61s1.9,0.2,2.67,0.61c0.77,0.41,1.36,0.99,1.78,1.73s0.63,1.61,0.63,2.6
						c0,0.99-0.21,1.85-0.63,2.6c-0.42,0.75-1.01,1.32-1.78,1.73c-0.77,0.41-1.66,0.61-2.67,0.61S75.61,147.12,74.84,146.71z
						 M79.02,144.99c0.43-0.25,0.77-0.59,1.01-1.04c0.24-0.45,0.36-0.97,0.36-1.56s-0.12-1.11-0.36-1.56s-0.57-0.8-1.01-1.04
						c-0.44-0.25-0.94-0.37-1.5-0.37c-0.56,0-1.06,0.12-1.49,0.37c-0.43,0.25-0.76,0.59-1,1.04c-0.24,0.45-0.36,0.97-0.36,1.56
						s0.12,1.11,0.36,1.56c0.24,0.45,0.57,0.8,1,1.04c0.43,0.25,0.93,0.37,1.49,0.37C78.08,145.36,78.58,145.24,79.02,144.99z"/>
					<path class="st3" d="M93.1,137.68h2.44l-3.88,9.42h-2.33l-3.88-9.42h2.44l1.26,3.2l1.33,3.66l1.36-3.66L93.1,137.68z"/>
					<path class="st3" d="M105.46,147.09l-0.7-1.7h-4.64l-0.7,1.7h-2.35l4.22-9.42h2.35l4.2,9.42H105.46z M102.46,139.79l-1.55,3.71
						h3.07L102.46,139.79z"/>
					<path class="st3" d="M117.87,138.25c0.73,0.39,1.3,0.94,1.7,1.65s0.6,1.54,0.6,2.48s-0.2,1.77-0.6,2.48s-0.96,1.26-1.7,1.65
						c-0.73,0.39-1.58,0.58-2.55,0.58h-3.86v-9.42h3.86C116.29,137.68,117.14,137.87,117.87,138.25z M117.23,144.42
						c0.48-0.5,0.73-1.18,0.73-2.03c0-0.57-0.11-1.06-0.33-1.47s-0.53-0.74-0.93-0.97c-0.4-0.23-0.86-0.34-1.38-0.34h-1.66v5.57
						h1.66C116.11,145.17,116.75,144.92,117.23,144.42z"/>
					<path class="st3" d="M126.5,145.24h5.19v1.86h-7.33v-9.42h7.19v1.84h-5.05v1.91h4.78v1.78h-4.78V145.24z"/>
					<path class="st3" d="M30.06,153.82h1.98v9.42h-2.19v-5.89l-2.77,3.39h-0.43l-2.8-3.4v5.91h-2.19v-9.42h1.98l3.22,4.01
						L30.06,153.82z"/>
					<path class="st3" d="M38.91,161.38h5.19v1.86h-7.33v-9.42h7.19v1.84h-5.05v1.91h4.78v1.78h-4.78V161.38z"/>
					<path class="st3" d="M54.84,154.4c0.73,0.39,1.3,0.93,1.7,1.65c0.4,0.71,0.6,1.54,0.6,2.48c0,0.94-0.2,1.77-0.6,2.48
						c-0.4,0.71-0.96,1.26-1.7,1.65c-0.73,0.39-1.58,0.58-2.55,0.58h-3.86v-9.42h3.86C53.26,153.82,54.11,154.01,54.84,154.4z
						 M54.2,160.56c0.48-0.5,0.73-1.18,0.73-2.03c0-0.57-0.11-1.06-0.33-1.47s-0.53-0.74-0.93-0.97s-0.86-0.34-1.38-0.34h-1.66v5.57
						h1.66C53.08,161.32,53.71,161.06,54.2,160.56z"/>
					<path class="st3" d="M61.33,153.82h2.21v9.42h-2.21V153.82z"/>
					<path class="st3" d="M70.15,162.84c-0.77-0.41-1.36-0.99-1.78-1.74c-0.42-0.74-0.63-1.6-0.63-2.57s0.21-1.83,0.64-2.58
						c0.43-0.75,1.02-1.33,1.78-1.74s1.63-0.61,2.61-0.61c1.39,0,2.58,0.49,3.58,1.47L75,156.43c-0.6-0.57-1.32-0.86-2.17-0.86
						c-0.56,0-1.07,0.12-1.5,0.37c-0.44,0.25-0.77,0.59-1.01,1.04c-0.24,0.45-0.36,0.96-0.36,1.55s0.12,1.1,0.36,1.55
						c0.24,0.45,0.57,0.8,1.01,1.04c0.43,0.25,0.94,0.37,1.5,0.37c0.45,0,0.88-0.08,1.29-0.24c0.41-0.16,0.77-0.39,1.08-0.7
						l1.29,1.44c-1.01,0.98-2.24,1.47-3.67,1.47C71.81,163.45,70.92,163.25,70.15,162.84z"/>
					<path class="st3" d="M87.73,163.24l-0.7-1.7h-4.64l-0.7,1.7h-2.35l4.22-9.42h2.35l4.2,9.42H87.73z M84.73,155.93l-1.55,3.71
						h3.07L84.73,155.93z"/>
					<path class="st3" d="M93.73,153.82h2.21v7.43h4.74v1.99h-6.94V153.82z"/>
					<path class="st3" d="M112.21,162.84c-0.77-0.41-1.36-0.99-1.78-1.74c-0.42-0.74-0.63-1.6-0.63-2.57s0.21-1.83,0.64-2.58
						c0.43-0.75,1.02-1.33,1.78-1.74s1.63-0.61,2.61-0.61c1.39,0,2.58,0.49,3.58,1.47l-1.36,1.36c-0.6-0.57-1.32-0.86-2.17-0.86
						c-0.56,0-1.07,0.12-1.5,0.37c-0.44,0.25-0.77,0.59-1.01,1.04c-0.24,0.45-0.36,0.96-0.36,1.55s0.12,1.1,0.36,1.55
						c0.24,0.45,0.57,0.8,1.01,1.04c0.43,0.25,0.94,0.37,1.5,0.37c0.45,0,0.88-0.08,1.29-0.24c0.41-0.16,0.77-0.39,1.08-0.7
						l1.29,1.44c-1.01,0.98-2.24,1.47-3.67,1.47C113.86,163.45,112.98,163.25,112.21,162.84z"/>
					<path class="st3" d="M124.65,161.38h5.19v1.86h-7.33v-9.42h7.19v1.84h-5.05v1.91h4.78v1.78h-4.78V161.38z"/>
					<path class="st3" d="M140.38,153.82h2.19v9.42h-1.98l-4.26-5.83l0.03,2.54v3.28h-2.19v-9.42h1.98l4.26,5.85l-0.03-2.52V153.82z
						"/>
					<path class="st3" d="M154.45,153.82v1.92h-2.88v7.49h-2.21v-7.49h-2.87v-1.92H154.45z"/>
					<path class="st3" d="M160.5,161.38h5.19v1.86h-7.33v-9.42h7.19v1.84h-5.05v1.91h4.78v1.78h-4.78V161.38z"/>
					<path class="st3" d="M173.5,160.13h-1.28v3.11h-2.21v-9.42h4.59c0.68,0,1.28,0.13,1.79,0.4c0.51,0.26,0.91,0.64,1.18,1.12
						s0.42,1.04,0.42,1.67c0,0.72-0.19,1.33-0.56,1.84c-0.37,0.51-0.9,0.88-1.58,1.09l2.66,3.3h-2.62L173.5,160.13z M175.43,156.05
						c-0.25-0.23-0.62-0.35-1.08-0.35h-2.14v2.65h2.14c0.48,0,0.84-0.11,1.09-0.34s0.38-0.55,0.38-0.98
						C175.82,156.62,175.69,156.29,175.43,156.05z"/>
				</g>
			</g>
		</g>
	</g>
</g>
</svg>
