<?xml version="1.0" encoding="utf-8"?>
<!-- Generator: Adobe Illustrator 27.0.0, SVG Export Plug-In . SVG Version: 6.00 Build 0)  -->
<svg version="1.1" xmlns="http://www.w3.org/2000/svg" xmlns:xlink="http://www.w3.org/1999/xlink" x="0px" y="0px"
	 viewBox="0 0 200.17 200.17" style="enable-background:new 0 0 200.17 200.17;" xml:space="preserve">
<style type="text/css">
	.st0{fill:#FFFFFF;}
	.st1{clip-path:url(#SVGID_00000144306844781643706500000013306302002260714377_);}
	.st2{fill:#E5E5E5;}
	.st3{fill:#444444;}
	.st4{fill:#9C9C9C;}
	.st5{clip-path:url(#SVGID_00000134229283832360430180000007917640201290864516_);}
	.st6{clip-path:url(#SVGID_00000012430946414375537520000000090364464213609883_);}
	.st7{clip-path:url(#SVGID_00000015344739538787284890000001295454341594565793_);}
	.st8{fill:#3F3F69;}
	.st9{fill:#E5E5E6;}
	.st10{fill:#65AFCD;}
</style>
<g id="BACKGROUND">
</g>
<g id="OBJECTS">
	<g>
		<g>
			<path class="st3" d="M127.6,116.65c-19.21,19.21-44.94,24.61-57.48,12.08c-12.54-12.54-7.13-38.27,12.08-57.48
				c19.21-19.21,44.94-24.61,57.48-12.08C152.21,71.71,146.8,97.45,127.6,116.65z"/>
		</g>
		<g>
			<defs>
				<path id="SVGID_00000062175966625149081230000000189057223401624254_" d="M127.6,116.65c-19.21,19.21-44.94,24.61-57.48,12.08
					c-12.54-12.54-23.7-47.6-4.49-66.81c19.21-19.21,61.51-15.28,74.05-2.75C152.21,71.71,146.8,97.45,127.6,116.65z"/>
			</defs>
			<clipPath id="SVGID_00000012430930045428594940000010263264482350204572_">
				<use xlink:href="#SVGID_00000062175966625149081230000000189057223401624254_"  style="overflow:visible;"/>
			</clipPath>
			<g style="clip-path:url(#SVGID_00000012430930045428594940000010263264482350204572_);">
				<g>
					<path class="st4" d="M101.97,134.8c28.43-10.02,44.7-30.79,44.7-45.2c0-14.41-11.68-26.1-26.1-26.1
						c-7.21,0-13.88,2.92-18.61,7.64c-4.72-4.72-11.4-7.64-18.6-7.64c-14.41,0-26.1,11.68-26.1,26.1
						C57.26,104.01,73.54,124.78,101.97,134.8z"/>
				</g>
				<g>
					<polygon class="st0" points="114.93,92.83 107.48,92.83 107.48,85.38 96.45,85.38 96.45,92.83 89,92.83 89,103.85 
						96.45,103.85 96.45,111.3 107.48,111.3 107.48,103.85 114.93,103.85 					"/>
				</g>
			</g>
		</g>
		<g>
			<g>
				<g>
					<path class="st3" d="M43.05,142.11v1.92h-2.88v7.49h-2.21v-7.49H35.1v-1.92H43.05z"/>
				</g>
				<g>
					<path class="st3" d="M46.97,142.11h2.21v9.42h-2.21V142.11z"/>
				</g>
				<g>
					<path class="st3" d="M60.33,142.52c0.54,0.27,0.96,0.67,1.26,1.18c0.3,0.51,0.44,1.11,0.44,1.79s-0.15,1.28-0.44,1.79
						c-0.3,0.51-0.72,0.9-1.26,1.18c-0.54,0.27-1.18,0.41-1.9,0.41h-2.3v2.66h-2.21v-9.42h4.51
						C59.16,142.11,59.79,142.25,60.33,142.52z M59.43,146.55c0.27-0.26,0.41-0.61,0.41-1.05s-0.14-0.79-0.41-1.05
						c-0.27-0.26-0.64-0.39-1.11-0.39h-2.21v2.88h2.21C58.79,146.94,59.16,146.81,59.43,146.55z"/>
				</g>
				<g>
					<path class="st3" d="M72.22,142.11h2.19v9.42h-1.98l-4.27-5.83l0.03,2.54v3.28H66v-9.42h1.98l4.27,5.85l-0.03-2.52V142.11z"/>
				</g>
				<g>
					<path class="st3" d="M86.43,151.53l-0.7-1.7h-4.64l-0.7,1.7h-2.35l4.23-9.42h2.35l4.2,9.42H86.43z M83.43,144.22l-1.55,3.71
						h3.07L83.43,144.22z"/>
				</g>
				<g>
					<path class="st3" d="M104.04,142.11h2.19v9.42h-2.19v-3.78h-4v3.78h-2.21v-9.42h2.21v3.65h4V142.11z"/>
				</g>
				<g>
					<path class="st3" d="M113.12,149.67h5.19v1.86h-7.33v-9.42h7.19v1.84h-5.05v1.91h4.78v1.78h-4.78V149.67z"/>
				</g>
				<g>
					<path class="st3" d="M129.91,151.53l-0.7-1.7h-4.64l-0.7,1.7h-2.35l4.23-9.42h2.35l4.2,9.42H129.91z M126.91,144.22l-1.55,3.71
						h3.07L126.91,144.22z"/>
				</g>
				<g>
					<path class="st3" d="M135.91,142.11h2.21v7.43h4.74v1.99h-6.94V142.11z"/>
				</g>
				<g>
					<path class="st3" d="M152.76,142.11v1.92h-2.88v7.49h-2.21v-7.49h-2.87v-1.92H152.76z"/>
				</g>
				<g>
					<path class="st3" d="M162.88,142.11h2.19v9.42h-2.19v-3.78h-4v3.78h-2.21v-9.42h2.21v3.65h4V142.11z"/>
				</g>
			</g>
		</g>
	</g>
</g>
</svg>
