<?xml version="1.0" encoding="utf-8"?>
<!-- Generator: Adobe Illustrator 27.0.0, SVG Export Plug-In . SVG Version: 6.00 Build 0)  -->
<svg version="1.1" xmlns="http://www.w3.org/2000/svg" xmlns:xlink="http://www.w3.org/1999/xlink" x="0px" y="0px"
	 viewBox="0 0 200.17 200.17" style="enable-background:new 0 0 200.17 200.17;" xml:space="preserve">
<style type="text/css">
	.st0{fill:#FFFFFF;}
	.st1{clip-path:url(#SVGID_00000008854741858013212550000000748160667944252548_);}
	.st2{fill:#E5E5E5;}
	.st3{fill:#444444;}
	.st4{fill:#9C9C9C;}
	.st5{clip-path:url(#SVGID_00000087393534885253533140000009656616990818586517_);}
	.st6{clip-path:url(#SVGID_00000114788320380787665120000002248698220687720335_);}
	.st7{clip-path:url(#SVGID_00000021827113880010664040000015784046399874191260_);}
	.st8{fill:#3F3F69;}
	.st9{fill:#E5E5E6;}
	.st10{fill:#65AFCD;}
</style>
<g id="BACKGROUND">
</g>
<g id="OBJECTS">
	<g>
		<g>
			<g>
				<path class="st3" d="M104.7,121.31c-21.52,0-38.96-17.44-38.96-38.96c0-17.11,11.03-31.63,26.37-36.86
					c-21.94,2.27-39.04,20.82-39.04,43.36c0,24.08,19.52,43.59,43.59,43.59c19.33,0,35.7-12.58,41.42-29.99
					C131.25,113.75,118.86,121.31,104.7,121.31z"/>
			</g>
			<g>
				<polygon class="st4" points="122.28,75.03 110.51,75.03 110.51,63.26 93.08,63.26 93.08,75.03 81.31,75.03 81.31,92.46 
					93.08,92.46 93.08,104.23 110.51,104.23 110.51,92.46 122.28,92.46 				"/>
			</g>
		</g>
		<g>
			<g>
				<path class="st4" d="M61.23,145.26v1.92h-2.88v7.49h-2.21v-7.49h-2.87v-1.92H61.23z"/>
				<path class="st4" d="M68.52,152.88H70v1.8h-5.3v-1.8h1.65v-5.1l-1.49,0.44v-1.86l3.44-1.21h0.22V152.88z"/>
				<path class="st4" d="M86.08,145.26h2.19v9.42h-2.19v-3.78h-4v3.78h-2.21v-9.42h2.21v3.65h4V145.26z"/>
				<path class="st4" d="M95.16,152.82h5.19v1.86h-7.33v-9.42h7.18v1.84h-5.04v1.91h4.78v1.78h-4.78V152.82z"/>
				<path class="st4" d="M111.95,154.68l-0.7-1.7h-4.64l-0.7,1.7h-2.35l4.23-9.42h2.35l4.2,9.42H111.95z M108.95,147.38l-1.55,3.71
					h3.07L108.95,147.38z"/>
				<path class="st4" d="M117.95,145.26h2.21v7.43h4.74v1.99h-6.94V145.26z"/>
				<path class="st4" d="M134.8,145.26v1.92h-2.88v7.49h-2.21v-7.49h-2.87v-1.92H134.8z"/>
				<path class="st4" d="M144.92,145.26h2.19v9.42h-2.19v-3.78h-4v3.78h-2.21v-9.42h2.21v3.65h4V145.26z"/>
			</g>
		</g>
	</g>
</g>
</svg>
