<?xml version="1.0" encoding="utf-8"?>
<!-- Generator: Adobe Illustrator 27.0.0, SVG Export Plug-In . SVG Version: 6.00 Build 0)  -->
<svg version="1.1" xmlns="http://www.w3.org/2000/svg" xmlns:xlink="http://www.w3.org/1999/xlink" x="0px" y="0px"
	 viewBox="0 0 200.17 200.17" style="enable-background:new 0 0 200.17 200.17;" xml:space="preserve">
<style type="text/css">
	.st0{fill:#FFFFFF;}
	.st1{clip-path:url(#SVGID_00000017489384453122431860000013531506411014196411_);}
	.st2{fill:#E5E5E5;}
	.st3{fill:#444444;}
	.st4{fill:#9C9C9C;}
	.st5{clip-path:url(#SVGID_00000038372928287451364670000003103086080228129666_);}
	.st6{clip-path:url(#SVGID_00000055680516705917627310000010341481903150305185_);}
	.st7{clip-path:url(#SVGID_00000110438880247831424710000001079754763581367708_);}
	.st8{fill:#3F3F69;}
	.st9{fill:#E5E5E6;}
	.st10{fill:#65AFCD;}
</style>
<g id="BACKGROUND">
</g>
<g id="OBJECTS">
	<g>
		<g>
			<g>
				<polygon class="st4" points="140.55,78.79 129.07,58.89 111.57,68.98 111.57,48.78 88.6,48.78 88.6,68.98 71.1,58.89 
					59.62,78.79 77.1,88.86 59.62,98.94 71.1,118.84 88.6,108.74 88.6,128.95 111.57,128.95 111.57,108.74 129.07,118.84 
					140.55,98.94 123.07,88.86 				"/>
			</g>
			<g>
				<defs>
					<polygon id="SVGID_00000062189272003992366080000013059331973957809840_" points="140.55,78.79 129.07,58.89 111.57,68.98 
						111.57,48.78 88.6,48.78 88.6,68.98 71.1,58.89 59.62,78.79 77.1,88.86 59.62,98.94 71.1,118.84 88.6,108.74 88.6,128.95 
						111.57,128.95 111.57,108.74 129.07,118.84 140.55,98.94 123.07,88.86 					"/>
				</defs>
				<clipPath id="SVGID_00000003098544913649241990000009329213894355406520_">
					<use xlink:href="#SVGID_00000062189272003992366080000013059331973957809840_"  style="overflow:visible;"/>
				</clipPath>
				<g style="clip-path:url(#SVGID_00000003098544913649241990000009329213894355406520_);">
					<g>
						<g>
							<g>
								<g>
									<path class="st3" d="M102.05,78.72c0,0,6.49-1.92,8.45-5.76c0,0,10.7,7.8,20.83,5.27c0,0-1.29,9.95-9.56,6.45
										c0,0-2.2,6.62-9.25,1.78c0,0-8.02,6.15-10.72-1.78"/>
								</g>
							</g>
						</g>
						<g>
							<g>
								<g>
									<path class="st3" d="M98.12,78.72c0,0-6.49-1.92-8.45-5.76c0,0-10.7,7.8-20.83,5.27c0,0,1.29,9.95,9.56,6.45
										c0,0,2.21,6.62,9.25,1.78c0,0,8.03,6.15,10.72-1.78"/>
								</g>
							</g>
						</g>
					</g>
					<g>
						<g>
							<path class="st3" d="M105.94,67.68c0,3.23-2.62,5.85-5.85,5.85c-3.23,0-5.85-2.62-5.85-5.85c0-3.23,2.62-5.85,5.85-5.85
								C103.32,61.82,105.94,64.44,105.94,67.68z"/>
						</g>
					</g>
					<g>
						<g>
							<polygon class="st3" points="97.04,68.2 100.08,161.52 103.13,68.2 							"/>
						</g>
					</g>
					<g>
						<g>
							<g>
								<g>
									<g>
										<path class="st4" d="M97.93,144.62c0.11-0.05,0.24-0.11,0.38-0.17c-0.49-0.43-0.81-0.95-0.75-1.56
											c0.03-0.24,0.1-0.46,0.22-0.65c-0.48-0.07-0.93-0.13-1.31-0.23c-1.84-0.47-3.69-1-5.34-1.82
											c-0.89,0.77-1.45,1.56-1.67,2.39c-0.23,0.84-0.11,1.7,0.35,2.46c0.63,1.06,2.15,2,3.86,2.79
											C95,145.87,97.03,145,97.93,144.62z"/>
									</g>
								</g>
								<g>
									<g>
										<path class="st4" d="M101.36,151.31c0.13,0.2,0.21,0.43,0.25,0.69c0.1,0.78-0.25,1.55-0.69,2.23
											c0.9,1.05,2.06,2,3.37,2.75c0.97-1.44,1.62-3.11,1.57-4.99c-0.02-0.81-0.16-1.51-0.39-2.12
											c-1.22,0.49-2.53,0.94-3.86,1.36L101.36,151.31z"/>
									</g>
								</g>
								<g>
									<g>
										<path class="st0" d="M95.98,116.19c0.35-0.17,0.7-0.32,1.06-0.47c-0.45-0.09-0.91-0.18-1.37-0.27
											c-1.64-0.32-3.31-0.66-4.96-1.14c-2.52,1.58-3.99,3.2-4.46,4.93c-0.33,1.21-0.16,2.43,0.5,3.53
											c0.95,1.59,2.49,2.62,4.18,3.36c1.29-0.83,2.66-1.48,3.91-1.98c0.62-0.25,1.25-0.47,1.88-0.67
											c-1.39-0.34-3.02-0.89-3.68-2.25C91.91,118.9,94.19,117.06,95.98,116.19z"/>
									</g>
								</g>
								<g>
									<g>
										<path class="st4" d="M95.12,158.98c-0.14,0.06-0.28,0.13-0.42,0.19c-1.1,0.47-1.6,1.74-1.13,2.84
											c0.35,0.82,1.15,1.31,1.99,1.31c0.28,0,0.57-0.06,0.85-0.18c0.11-0.05,0.95-0.41,2.08-1.07
											C97.35,161.24,96.15,160.21,95.12,158.98z"/>
									</g>
								</g>
								<g>
									<g>
										<path class="st0" d="M119.1,97.24c-1.1-4.09-3.61-5.75-5.52-6.42c-3.6-1.27-7.78,0.04-9.59,1.37
											c-0.97,0.71-1.17,2.06-0.47,3.02c0.71,0.96,2.06,1.17,3.02,0.46c0.72-0.53,3.44-1.53,5.6-0.77
											c1.37,0.48,2.27,1.61,2.77,3.46c0.44,1.62,0.11,4.17-0.71,5.56c-0.82,1.4-2.14,2.62-3.81,3.55
											c-2.05,1.13-4.91,1.77-6.99,2.23c-0.13,0.03-0.27,0.06-0.41,0.09c1.9,0.61,3.79,1.37,5.62,2.38
											c0.25,0.13,0.49,0.27,0.72,0.41c0.37-0.12,0.74-0.25,1.1-0.39c3.05-1.19,5.83-3.22,7.5-6.08
											C119.35,103.72,119.84,99.99,119.1,97.24z"/>
									</g>
								</g>
								<g>
									<g>
										<path class="st0" d="M108.74,127.9c-1.02,0.39-2.06,0.69-3.06,0.96c-0.93,0.25-1.95,0.5-3.17,0.77
											c1.16,0.66,2.02,1.62,2.02,3.04c0,1.46-0.72,2.36-1.73,2.96c1.71,0.42,3.1,0.94,4.35,1.62c0.64,0.35,1.21,0.71,1.73,1.07
											c1.1-0.66,2.05-1.51,2.72-2.62c0.66-1.1,0.83-2.32,0.5-3.53C111.62,130.43,110.3,129.02,108.74,127.9z"/>
									</g>
								</g>
							</g>
							<g>
								<g>
									<path class="st0" d="M80.75,97.24c1.1-4.09,3.61-5.75,5.52-6.42c3.6-1.27,7.78,0.04,9.59,1.37
										c0.96,0.71,1.17,2.06,0.47,3.02c-0.71,0.96-2.06,1.17-3.03,0.46c-0.72-0.53-3.44-1.53-5.6-0.77
										c-1.37,0.48-2.27,1.61-2.77,3.46c-0.44,1.62-0.11,4.17,0.7,5.56c0.82,1.4,2.14,2.62,3.81,3.55
										c2.05,1.13,4.91,1.77,6.99,2.23c3.76,0.84,7.75,1.83,11.44,3.85c3.31,1.82,5.19,3.67,5.73,5.67
										c0.33,1.21,0.16,2.43-0.5,3.53c-1.62,2.72-4.96,3.8-7.84,4.58c-1.1,0.3-2.21,0.55-3.32,0.8c-2.33,0.5-6.63,1.36-6.63,4.52
										c0,3.54,4.21,3.81,6.78,4.41c1.5,0.35,2.94,0.81,4.29,1.55c2.31,1.27,3.62,2.57,4,3.96c0.23,0.84,0.11,1.7-0.35,2.46
										c-1.28,2.15-6.17,3.79-8.92,4.67c0,0,0-0.02,0-0.02c-1.09,0.4-2.72,0.94-2.88,2.29c-0.14,1.14,0.65,2.27,1.34,3.1
										c1.46,1.77,3.46,3.16,5.56,4.07c1.1,0.47,1.6,1.74,1.13,2.84c-0.35,0.82-1.15,1.31-1.99,1.31c-0.28,0-0.57-0.06-0.85-0.18
										c-0.39-0.16-9.61-4.2-9.44-11.16c0.08-3.47,2.39-5.01,4.58-5.93c1.07-0.5,3.9-1.46,3.72-3.17
										c-0.22-2.12-3.99-2.04-5.43-2.4c-3.09-0.79-6.85-1.86-8.6-4.79c-0.66-1.1-0.83-2.32-0.5-3.53
										c0.89-3.27,4.75-5.41,7.66-6.57c2.42-0.97,4.98-1.48,7.51-2.08c1.43-0.34,3.19-0.88,3.89-2.3
										c1.13-2.32-1.16-4.15-2.94-5.03c-4.53-2.22-9.8-2.17-14.47-3.99c-3.05-1.19-5.83-3.22-7.5-6.08
										C80.5,103.72,80.01,99.99,80.75,97.24z"/>
								</g>
							</g>
						</g>
						<g>
							<g>
								<path class="st0" d="M112.63,93.41c0.74,2.21-1.05,4.8-4,5.79c-2.95,0.99-5.94-0.01-6.67-2.22c-0.74-2.21,1.05-4.8,4-5.79
									C108.9,90.21,111.89,91.2,112.63,93.41z"/>
							</g>
						</g>
						<g>
							<g>
								<path class="st0" d="M87.25,93.41c-0.74,2.21,1.05,4.8,4,5.79c2.95,0.99,5.94-0.01,6.67-2.22c0.74-2.21-1.05-4.8-4-5.79
									C90.98,90.21,87.99,91.2,87.25,93.41z"/>
							</g>
						</g>
					</g>
				</g>
			</g>
		</g>
		<g>
			<g>
				<path class="st4" d="M26.08,148.49v-6.7h1.51v9.42h-1.14l-5.34-6.65v6.65h-1.52v-9.42h1.16L26.08,148.49z"/>
				<path class="st4" d="M32.68,151.21l4.16-7.98h-4.97v-1.44h6.9l0.09,0.86l-4.45,8.56H32.68z"/>
				<path class="st4" d="M42.93,151.21l4.16-7.98h-4.97v-1.44h6.9l0.09,0.86l-4.46,8.56H42.93z"/>
				<path class="st4" d="M65.68,151.21v-3.92H60.7v3.92h-1.51v-9.42h1.51v4.1h4.98v-4.1h1.49v9.42H65.68z"/>
				<path class="st4" d="M79.18,151.21h-6.96v-9.42h6.92v1.47h-5.41v2.54h5.2v1.4h-5.2v2.53h5.45V151.21z"/>
				<path class="st4" d="M90.34,149.23h-5.1l-0.89,1.98h-1.6l4.23-9.42h1.64l4.23,9.42h-1.6L90.34,149.23z M87.79,143.37l-1.99,4.48
					h3.98L87.79,143.37z"/>
				<path class="st4" d="M98.34,141.79v8.02h4.97v1.4h-6.47v-9.42H98.34z"/>
				<path class="st4" d="M108.29,143.14h-3.09v-1.36h7.7v1.36h-3.08v8.06h-1.52V143.14z"/>
				<path class="st4" d="M123.48,151.21v-3.92h-4.98v3.92h-1.51v-9.42h1.51v4.1h4.98v-4.1h1.49v9.42H123.48z"/>
				<path class="st4" d="M144,150c-0.94,0.93-2.12,1.4-3.54,1.4c-0.83,0-1.56-0.13-2.21-0.4c-0.65-0.27-1.17-0.63-1.56-1.09
					c-0.39-0.46-0.69-0.97-0.89-1.53s-0.3-1.17-0.3-1.8c0-0.64,0.1-1.24,0.31-1.82c0.21-0.58,0.51-1.1,0.9-1.57
					c0.39-0.47,0.92-0.85,1.57-1.12s1.38-0.42,2.19-0.42c1.35,0,2.49,0.48,3.45,1.43l-1.01,0.97c-0.66-0.65-1.47-0.97-2.44-0.97
					c-1.12,0-1.98,0.34-2.58,1.04c-0.6,0.69-0.9,1.51-0.89,2.46c0.01,0.95,0.3,1.76,0.89,2.43c0.58,0.67,1.44,1,2.58,1
					c0.45,0,0.9-0.09,1.35-0.27c0.45-0.18,0.83-0.43,1.16-0.75L144,150z"/>
				<path class="st4" d="M154.75,149.23h-5.1l-0.89,1.98h-1.6l4.23-9.42h1.64l4.23,9.42h-1.6L154.75,149.23z M152.2,143.37
					l-1.99,4.48h3.98L152.2,143.37z"/>
				<path class="st4" d="M169.37,151.21h-1.76l-2.87-3.26h-1.99v3.26h-1.51v-9.43c0.48,0,1.22,0,2.19,0.01
					c0.98,0,1.71,0.01,2.19,0.01c1.04,0,1.85,0.3,2.44,0.91c0.59,0.61,0.88,1.33,0.88,2.17c0,0.75-0.21,1.39-0.63,1.93
					c-0.42,0.54-1.06,0.88-1.93,1l2.81,3.14L169.37,151.21z M162.75,143.16v3.42h2.87c0.59,0,1.04-0.16,1.35-0.48
					s0.46-0.72,0.46-1.2c0-0.47-0.15-0.87-0.46-1.22c-0.3-0.34-0.75-0.52-1.33-0.52H162.75z"/>
				<path class="st4" d="M180.59,151.21h-6.96v-9.42h6.92v1.47h-5.41v2.54h5.2v1.4h-5.2v2.53h5.45V151.21z"/>
			</g>
		</g>
	</g>
</g>
</svg>
